<svg width="45" height="47" viewBox="0 0 45 47" fill="none" xmlns="http://www.w3.org/2000/svg">
<path d="M22.5 45.3699C19.7648 45.3699 17.2415 43.0098 15.395 38.7244C13.6288 34.6261 12.6562 29.1923 12.6562 23.4251C12.6562 17.6579 13.6288 12.2245 15.395 8.12581C17.2415 3.84036 19.7648 1.48029 22.5 1.48029C25.2352 1.48029 27.7585 3.84036 29.605 8.12581C31.3712 12.2245 32.3438 17.6579 32.3438 23.4251C32.3438 29.1923 31.3712 34.6261 29.605 38.7244C27.7585 43.0098 25.2352 45.3699 22.5 45.3699ZM22.5 2.94327C20.3832 2.94327 18.2613 5.05034 16.6782 8.72426C14.9914 12.6388 14.0625 17.8597 14.0625 23.4251C14.0625 28.9905 14.9914 34.2113 16.6782 38.1259C18.2613 41.7998 20.3832 43.9069 22.5 43.9069C24.6168 43.9069 26.7387 41.7998 28.3218 38.1259C30.0086 34.2113 30.9375 28.9905 30.9375 23.4251C30.9375 17.8597 30.0086 12.6388 28.3218 8.72426C26.7387 5.05034 24.6168 2.94327 22.5 2.94327Z" fill="#3397E8"/>
<path d="M34.7011 38.787C33.5135 38.7777 32.329 38.6594 31.1614 38.4335C26.5768 37.5793 21.3455 35.2677 16.431 31.9244C12.7862 29.4447 9.59404 26.5804 7.19937 23.6409C4.82536 20.7268 3.35038 17.8849 2.93395 15.4224C2.61465 13.5339 2.91567 11.9339 3.82894 10.6667C5.51513 8.32735 9.07039 7.52837 13.8387 8.41668C18.4234 9.27088 23.6546 11.5825 28.5692 14.9258C32.2139 17.4055 35.4061 20.2698 37.8008 23.2093C40.1748 26.1234 41.6498 28.9653 42.0662 31.4277C42.3855 33.3163 42.0845 34.9163 41.1712 36.1835C39.9341 37.8995 37.6911 38.787 34.7011 38.787ZM10.3193 9.52947C7.79554 9.52947 5.90852 10.2204 4.95447 11.5443C4.2836 12.475 4.06994 13.6946 4.31929 15.1689C5.10494 19.8139 10.1613 25.9106 17.201 30.7C21.9606 33.9381 27.0065 36.1731 31.4093 36.9934C35.5665 37.7679 38.7148 37.1529 40.0457 35.3059C40.7165 34.3752 40.9302 33.1556 40.6809 31.6813C39.8952 27.0363 34.8389 20.9396 27.7992 16.1502C23.0395 12.9121 17.9937 10.6771 13.5909 9.85681C12.5117 9.64797 11.417 9.53843 10.3193 9.52947Z" fill="#1261A0"/>
<path d="M10.299 38.7869C7.30852 38.7869 5.06616 37.9 3.82919 36.1835C2.91592 34.9162 2.61489 33.3162 2.9342 31.4276C3.35062 28.9653 4.8256 26.1233 7.19962 23.2092C9.59429 20.2697 12.7865 17.4054 16.4312 14.9257C21.3454 11.5824 26.5767 9.27081 31.1617 8.41661C35.9305 7.52821 39.4849 8.32719 41.1711 10.6666C42.0844 11.9338 42.3854 13.5339 42.0661 15.4223C41.6497 17.8848 40.1747 20.7267 37.8007 23.6408C35.406 26.5803 32.2138 29.4447 28.5691 31.9243C23.6549 35.2676 18.4236 37.5792 13.8386 38.4334C12.671 38.6593 11.4866 38.7776 10.299 38.7869ZM16.8161 15.538L17.2009 16.1501C10.1612 20.9395 5.10483 27.0359 4.31918 31.6812C4.06983 33.1555 4.2835 34.3751 4.95436 35.3058C6.28538 37.1529 9.43327 37.7679 13.5908 36.9933C17.9936 36.173 23.039 33.938 27.7991 30.6999C34.8391 25.9105 39.8951 19.8142 40.6808 15.1688C40.9301 13.6945 40.7165 12.4749 40.0456 11.5442C38.7146 9.69718 35.5667 9.08218 31.4092 9.85674C27.0064 10.677 21.9605 12.912 17.2009 16.1501L16.8161 15.538Z" fill="#2978B8"/>
<path d="M22.5 28.5455C25.2183 28.5455 27.4219 26.253 27.4219 23.4251C27.4219 20.5971 25.2183 18.3046 22.5 18.3046C19.7817 18.3046 17.5781 20.5971 17.5781 23.4251C17.5781 26.253 19.7817 28.5455 22.5 28.5455Z" fill="#EB423F"/>
<path d="M5.625 29.277C6.78998 29.277 7.73438 28.2945 7.73438 27.0825C7.73438 25.8706 6.78998 24.8881 5.625 24.8881C4.46002 24.8881 3.51562 25.8706 3.51562 27.0825C3.51562 28.2945 4.46002 29.277 5.625 29.277Z" fill="#F7B030"/>
<path d="M33.75 40.2494C34.915 40.2494 35.8594 39.2669 35.8594 38.055C35.8594 36.843 34.915 35.8605 33.75 35.8605C32.585 35.8605 31.6406 36.843 31.6406 38.055C31.6406 39.2669 32.585 40.2494 33.75 40.2494Z" fill="#F7B030"/>
<path d="M27.4219 8.06373C28.5869 8.06373 29.5312 7.08123 29.5312 5.86925C29.5312 4.65728 28.5869 3.67477 27.4219 3.67477C26.2569 3.67477 25.3125 4.65728 25.3125 5.86925C25.3125 7.08123 26.2569 8.06373 27.4219 8.06373Z" fill="#F7B030"/>
</svg>
