<svg width="49" height="47" viewBox="0 0 49 47" fill="none" xmlns="http://www.w3.org/2000/svg">
<g clip-path="url(#clip0)">
<path d="M35.7146 6.53412C31.0218 6.53412 26.3237 8.68896 24.0595 12.8018C21.7954 8.68905 17.0972 6.53412 12.4043 6.53412C8.02232 6.53412 3.5917 8.31452 0.412933 11.4194L2.4064 13.3665L24.0595 19.8415L45.7126 13.3665L47.7061 11.4194C44.5272 8.31452 40.0967 6.53412 35.7146 6.53412Z" fill="#ECECF1"/>
<path d="M47.706 11.4194C44.5272 8.31452 40.0967 6.53412 35.7147 6.53412C31.0218 6.53412 26.3237 8.68896 24.0595 12.8018V19.8415L45.7126 13.3665L47.706 11.4194Z" fill="#CFDDE2"/>
<path d="M24.0595 0.000366211C23.2803 0.000366211 22.6498 0.616231 22.6498 1.37732V4.13123C22.6498 4.89231 23.2803 5.50818 24.0595 5.50818C24.8387 5.50818 25.4693 4.89231 25.4693 4.13123V1.37732C25.4693 0.616231 24.8387 0.000366211 24.0595 0.000366211Z" fill="#FFE470"/>
<path d="M46.7093 11.016C39.1113 11.016 31.4111 12.7695 24.6198 16.0881L24.0595 16.3614L23.4992 16.0881C16.7079 12.7694 9.00775 11.016 1.40974 11.016C0.630529 11.016 0 11.6319 0 12.3929V40.1156C0 40.8767 0.630529 41.4926 1.40974 41.4926C8.5713 41.4926 15.8351 43.1465 22.2381 46.2743L23.429 46.8551C23.6296 46.9524 23.8451 46.9997 24.0595 46.9997C24.276 46.9997 24.4915 46.9514 24.6901 46.8551L25.8809 46.2743C32.2839 43.1465 39.5477 41.4926 46.7093 41.4926C47.4885 41.4926 48.119 40.8767 48.119 40.1156V12.3929C48.119 11.6319 47.4885 11.016 46.7093 11.016Z" fill="#704C55"/>
<path d="M24.69 46.8551L25.8809 46.2743C32.2839 43.1465 39.5477 41.4926 46.7093 41.4926C47.4885 41.4926 48.119 40.8767 48.119 40.1156V12.3929C48.119 11.6319 47.4885 11.016 46.7093 11.016C39.1113 11.016 31.4111 12.7695 24.6198 16.0881L24.0595 16.3614V46.9996C24.276 46.9996 24.4915 46.9514 24.69 46.8551Z" fill="#4B2746"/>
<path d="M17.4239 5.10475L14.6044 2.35085C14.0538 1.81301 14.0538 0.941583 14.6044 0.403745C15.1551 -0.134093 16.0472 -0.134093 16.5979 0.403745L19.4174 3.15765C19.968 3.69549 19.968 4.56692 19.4174 5.10475C18.8666 5.64259 17.9745 5.64268 17.4239 5.10475Z" fill="#FFE470"/>
<path d="M25.4692 4.13123V1.37732C25.4692 0.616231 24.8387 0.000366211 24.0595 0.000366211V5.50818C24.8387 5.50818 25.4692 4.89231 25.4692 4.13123Z" fill="#FFC473"/>
<path d="M28.7018 5.10475C28.1512 4.56692 28.1512 3.69549 28.7018 3.15765L31.5213 0.403745C32.0719 -0.134093 32.9641 -0.134093 33.5147 0.403745C34.0654 0.941583 34.0654 1.81301 33.5147 2.35085L30.6953 5.10475C30.1445 5.64259 29.2524 5.64268 28.7018 5.10475Z" fill="#FFC473"/>
<path d="M40.8098 22.4596C39.4453 22.6183 38.0926 22.8529 36.7471 23.1222V20.7465C36.7471 19.9854 36.1166 19.3695 35.3374 19.3695C34.5582 19.3695 33.9276 19.9854 33.9276 20.7465V23.7705C32.3296 24.1872 30.7476 24.6631 29.2 25.2351C28.4718 25.504 28.1042 26.2987 28.3796 27.01C28.6573 27.7274 29.4768 28.0774 30.1968 27.8114C31.4206 27.3592 32.6695 26.9771 33.9276 26.6274V34.516C33.9276 35.2771 34.5582 35.8929 35.3374 35.8929C36.1166 35.8929 36.7471 35.2771 36.7471 34.516V25.9369C38.2005 25.6275 39.665 25.3663 41.1428 25.1947C41.9152 25.1046 42.4686 24.4201 42.3764 23.6644C42.2842 22.91 41.5793 22.3587 40.8098 22.4596Z" fill="#FFE470"/>
<path d="M36.7471 34.516V25.9369C38.2006 25.6275 39.665 25.3663 41.1429 25.1947C41.9152 25.1046 42.4686 24.4201 42.3764 23.6644C42.2842 22.91 41.5793 22.3587 40.8097 22.4596C39.4453 22.6183 38.0926 22.8529 36.747 23.1222V20.7465C36.747 19.9854 36.1165 19.3695 35.3373 19.3695V35.8929C36.1166 35.8929 36.7471 35.2771 36.7471 34.516Z" fill="#FFC473"/>
</g>
<defs>
<clipPath id="clip0">
<rect width="48.119" height="47" fill="white"/>
</clipPath>
</defs>
</svg>
