<svg width="33" height="36" viewBox="0 0 33 36" fill="none" xmlns="http://www.w3.org/2000/svg">
<g clip-path="url(#clip0)">
<path d="M30.7999 2.26952V33.8544C30.7999 34.6128 30.2089 35.2277 29.4798 35.2277H3.51988C2.79088 35.2277 2.19986 34.6129 2.19986 33.8544V2.26952C2.19993 1.51103 2.79088 0.89624 3.51988 0.89624H29.4798C30.2089 0.89624 30.7999 1.51103 30.7999 2.26952Z" fill="#64798A"/>
<path d="M30.7999 12.5538H2.19994V14.3848H30.7999V12.5538Z" fill="#3A556A"/>
<path d="M5.05948 2.85214C4.81651 2.85214 4.61948 3.05712 4.61948 3.3099V7.22512L20.6796 2.85214H5.05948Z" fill="#3EA69B"/>
<path d="M27.9395 2.85214H20.6796L4.61948 7.22519V10.267C4.61948 10.5198 4.81651 10.7247 5.05948 10.7247H27.9395C28.1826 10.7247 28.3795 10.5198 28.3795 10.267V3.3099C28.3795 3.05712 28.1825 2.85214 27.9395 2.85214Z" fill="#44C4A1"/>
<path d="M8.76082 16.3499H4.40001V20.4289H8.76082V16.3499Z" fill="#E1E6E9"/>
<path d="M8.76096 20.4281H4.40001L8.76096 16.3489V20.4281Z" fill="#D5D6DB"/>
<path d="M15.374 16.3499H11.0131V20.4289H15.374V16.3499Z" fill="#E1E6E9"/>
<path d="M15.3738 20.4281H11.0129L15.3738 16.3489V20.4281Z" fill="#D5D6DB"/>
<path d="M21.9867 16.3499H17.6259V20.4289H21.9867V16.3499Z" fill="#E1E6E9"/>
<path d="M21.987 20.4281H17.626L21.987 16.3489V20.4281Z" fill="#D5D6DB"/>
<path d="M8.76082 22.7722H4.40001V26.8512H8.76082V22.7722Z" fill="#E1E6E9"/>
<path d="M15.374 22.7722H11.0131V26.8512H15.374V22.7722Z" fill="#E1E6E9"/>
<path d="M21.9867 22.7722H17.6259V26.8512H21.9867V22.7722Z" fill="#E1E6E9"/>
<path d="M8.76096 26.85H4.40001L8.76096 22.7708V26.85Z" fill="#D5D6DB"/>
<path d="M15.3741 26.85H11.0131L15.3741 22.7708V26.85Z" fill="#D5D6DB"/>
<path d="M21.987 26.85H17.626L21.987 22.7708V26.85Z" fill="#D5D6DB"/>
<path d="M8.76082 29.1944H4.40001V33.2734H8.76082V29.1944Z" fill="#E1E6E9"/>
<path d="M15.374 29.1944H11.0131V33.2734H15.374V29.1944Z" fill="#E1E6E9"/>
<path d="M21.9867 29.1944H17.6259V33.2734H21.9867V29.1944Z" fill="#E1E6E9"/>
<path d="M8.76096 33.2717H4.40001L8.76096 29.1926V33.2717Z" fill="#D5D6DB"/>
<path d="M15.3741 33.2717H11.0131L15.3741 29.1926V33.2717Z" fill="#D5D6DB"/>
<path d="M21.987 33.2717H17.626L21.987 29.1926V33.2717Z" fill="#D5D6DB"/>
<path d="M28.6004 16.3499H24.2396V20.4289H28.6004V16.3499Z" fill="#FCD462"/>
<path d="M28.6001 20.4281H24.2391L28.6001 16.3489V20.4281Z" fill="#F6C358"/>
<path d="M28.6004 22.7722H24.2396V33.273H28.6004V22.7722Z" fill="#E56353"/>
<path d="M28.6001 33.2717H24.2391L28.6001 22.7708V33.2717Z" fill="#D15241"/>
</g>
<defs>
<clipPath id="clip0">
<rect width="33" height="34.3314" fill="white" transform="translate(0 0.89624)"/>
</clipPath>
</defs>
</svg>
