<svg width="33" height="33" viewBox="0 0 33 33" fill="none" xmlns="http://www.w3.org/2000/svg">
<path d="M28.4918 4.28534L24.4477 0.219025L19.7296 4.96308L23.0997 13.7734L28.4918 4.28534Z" fill="#FF3E3A"/>
<path d="M28.4918 4.28534L21.0777 11.7402L27.8178 13.0957L32.5359 8.35166L28.4918 4.28534Z" fill="#CC3245"/>
<path d="M2.17431 26.1927L0 32.9335L7.13525 28.4701L2.17431 26.1927Z" fill="#373E9F"/>
<path d="M0.000183105 32.9335L6.70415 30.7473L5.7873 27.1146L0.000183105 32.9335Z" fill="#340D66"/>
<path d="M11.9705 23.6083L3.88238 20.8974L2.17432 26.1928L4.43918 28.4701L11.9705 23.6083Z" fill="#FFE7B5"/>
<path d="M4.43909 28.4701L6.70401 30.7474L11.9704 29.03L10.6224 22.2528L4.43909 28.4701Z" fill="#FFD06A"/>
<path d="M7.92639 24.9638L11.9704 29.03L27.8178 13.0956L23.7737 9.02939L13.2143 14.2251L7.92639 24.9638Z" fill="#FF9A27"/>
<path d="M3.88086 20.8965L19.7257 4.96452L23.7692 9.03019L7.92431 24.9621L3.88086 20.8965Z" fill="#FFB820"/>
</svg>
