<svg width="43" height="42" viewBox="0 0 43 42" fill="none" xmlns="http://www.w3.org/2000/svg">
<g clip-path="url(#clip0)">
<path d="M37.0052 0H5.28646C2.37098 0 0 2.35462 0 5.25V36.75C0 39.6454 2.37098 42 5.28646 42H37.0052C39.9207 42 42.2917 39.6454 42.2917 36.75V5.25C42.2917 2.35462 39.9207 0 37.0052 0Z" fill="#1976D2"/>
<path d="M35.6836 21H29.0755V15.75C29.0755 14.301 30.2597 14.4375 31.7188 14.4375H34.362V7.875H29.0755C24.6957 7.875 21.1458 11.4004 21.1458 15.75V21H15.8594V27.5625H21.1458V42H29.0755V27.5625H33.0404L35.6836 21Z" fill="#FAFAFA"/>
</g>
<defs>
<clipPath id="clip0">
<rect width="42.2917" height="42" fill="white"/>
</clipPath>
</defs>
</svg>
