<svg width="65" height="75" viewBox="0 0 65 75" fill="none" xmlns="http://www.w3.org/2000/svg">
<path d="M0 45.1456V0H65V45.1456C55.4315 61.1651 32.5 75 32.5 75C32.5 75 7.58883 61.1651 0 45.1456Z" fill="#7C343F"/>
<path d="M4.0056 44.2549V4.36893H60.9944V44.2549C52.6052 58.4079 32.5 70.6311 32.5 70.6311C32.5 70.6311 10.6591 58.4079 4.0056 44.2549Z" stroke="#F26D5B" stroke-width="2"/>
<rect x="4.0056" y="32.767" width="56.9888" height="0.728157" fill="#F26D5B"/>
<path d="M60.6303 33.3131H32.7731V69.9029C46.7927 60.4369 52.528 55.7949 60.6303 44.4175V33.3131Z" fill="#FDFBEC"/>
<rect x="4.36975" y="4.73301" width="27.493" height="28.034" fill="#FDFBEC"/>
<rect x="31.8627" y="4.36893" width="0.91036" height="66.2621" fill="#F26D5B"/>
<g clip-path="url(#clip0)">
<path d="M23.2389 14.3924H23.2086V12.5038H23.2389C23.4746 12.5038 23.6657 12.3128 23.6657 12.0771C23.6657 11.8415 23.4746 11.6505 23.2389 11.6505H12.7261C11.7347 11.6505 10.9281 12.4569 10.9281 13.4481V23.502C10.9281 24.9972 12.1448 26.2136 13.6403 26.2136H23.2389C23.4746 26.2136 23.6657 26.0226 23.6657 25.7869V14.8191C23.6657 14.5835 23.4746 14.3924 23.2389 14.3924ZM19.1253 19.8157H17.7236V23.045C17.7236 23.2806 17.5326 23.4717 17.2969 23.4717C17.0612 23.4717 16.8702 23.2806 16.8702 23.045V19.8157H15.4686C15.2329 19.8157 15.0419 19.6247 15.0419 19.389C15.0419 19.1534 15.2329 18.9624 15.4686 18.9624H16.8702V17.5611C16.8702 17.3254 17.0612 17.1344 17.2969 17.1344C17.5326 17.1344 17.7236 17.3254 17.7236 17.5611V18.9624H19.1253C19.3609 18.9624 19.552 19.1534 19.552 19.389C19.552 19.6247 19.3609 19.8157 19.1253 19.8157ZM22.3551 14.3924H12.7261C12.2053 14.3924 11.7816 13.9688 11.7816 13.4481C11.7816 12.9274 12.2053 12.5038 12.7261 12.5038H22.3551V14.3924Z" fill="#7C343F"/>
</g>
<g clip-path="url(#clip1)">
<path d="M44.5127 27.2508C44.807 26.9782 45.121 26.2986 45.4621 24.9222C45.4636 24.9168 45.4646 24.9124 45.4651 24.9069C45.4823 24.8007 45.7289 23.099 45.1707 21.4859C45.1146 21.324 45.3189 21.2005 45.4346 21.327L45.6147 21.8678C45.7117 21.9741 45.8884 21.9052 45.8884 21.7615V20.7778C45.8884 20.6848 45.9686 20.6119 46.0611 20.6213L46.9544 20.7089C47.0352 20.7168 47.0967 20.7847 47.0967 20.8654V21.5563C47.0967 21.699 47.2714 21.7679 47.3689 21.664L47.9595 21.0342C48.0456 20.9421 48.2002 20.984 48.2277 21.107L48.3045 21.446C48.3183 21.5071 48.2951 21.571 48.2445 21.6075C47.8935 21.8584 46.7571 22.9902 47.2655 25.6367C47.267 25.6446 47.2684 25.6515 47.2714 25.6589C47.3054 25.7593 47.4195 26.5579 48.1017 27.204C48.1923 27.2897 48.1544 27.4407 48.0338 27.4708C47.8596 27.5146 47.6425 27.5731 47.4816 27.6302C47.0135 27.7955 46.3801 27.4004 46.1674 27.2532C46.1212 27.2213 46.0631 27.2168 46.0124 27.2405C45.7722 27.3541 45.0723 27.6676 44.7996 27.5898C44.7066 27.5633 44.6289 27.5367 44.5644 27.5121C44.4536 27.4717 44.4261 27.331 44.5127 27.2508Z" fill="#FDFBEC"/>
<path d="M50.9008 16.814C51.3231 16.3066 51.577 15.6546 51.577 14.943C51.577 13.326 50.2659 12.0146 48.648 12.0146C47.6125 12.0146 46.7044 12.5534 46.1837 13.3644C45.8308 13.076 45.3858 12.8959 44.8946 12.8959C43.8477 12.8959 42.9943 13.6842 42.8717 14.698C42.8348 14.696 42.7999 14.6871 42.762 14.6871C41.6314 14.6871 40.7145 15.6034 40.7145 16.7342C40.7145 17.0443 40.7888 17.3351 40.9123 17.5989C40.3862 18.1283 40.0609 18.8576 40.0609 19.6627C40.0609 21.2802 41.372 22.5912 42.9899 22.5912C44.1568 22.5912 45.1619 21.9066 45.6324 20.919C45.9287 21.0534 46.2545 21.1326 46.601 21.1326C46.9534 21.1326 47.2847 21.0494 47.5849 20.9107C48.054 21.9027 49.061 22.5912 50.2314 22.5912C51.8492 22.5912 53.1604 21.2802 53.1604 19.6627C53.1604 18.276 52.1952 17.1171 50.9008 16.814Z" fill="#FDFBEC"/>
</g>
<g clip-path="url(#clip2)">
<path d="M45.6013 40.0502C45.3566 40.0502 45.112 40.0633 44.8686 40.0895C44.6455 40.1123 44.4252 40.1497 44.2078 40.195C44.1658 40.2038 44.1237 40.2131 44.0816 40.2228C42.8009 40.5144 41.6314 41.1691 40.7135 42.1084C40.6281 42.1959 40.5445 42.286 40.4628 42.3786C37.9832 45.2248 38.2808 49.5418 41.1275 52.0209C43.8529 54.3944 47.9552 54.2365 50.49 51.6605C50.5755 51.573 50.659 51.483 50.7406 51.3903C51.8349 50.1444 52.4379 48.5426 52.437 46.8845C52.437 43.11 49.3766 40.0501 45.6013 40.0502ZM41.0172 42.4501C41.0532 42.4128 41.0906 42.377 41.1272 42.3408C41.1696 42.2991 41.2118 42.2572 41.2551 42.2168C41.2931 42.1813 41.3323 42.1471 41.3713 42.1125C41.4152 42.0736 41.459 42.0346 41.5041 41.997C41.5438 41.9635 41.5845 41.9314 41.6251 41.899C41.6707 41.8626 41.7162 41.8262 41.7632 41.7911C41.8046 41.7599 41.8468 41.7296 41.8892 41.6999C41.9363 41.6662 41.9837 41.6316 42.0318 41.6002C42.0749 41.571 42.1184 41.5428 42.1622 41.5147C42.2109 41.4835 42.2599 41.4528 42.3093 41.4236C42.3539 41.397 42.3987 41.3709 42.4438 41.3452C42.4942 41.3165 42.5449 41.2885 42.5958 41.2612C42.6413 41.2369 42.6869 41.2131 42.7325 41.1899C42.7844 41.1637 42.8368 41.1384 42.8895 41.1136C42.935 41.0919 42.9824 41.0703 43.0294 41.0498C43.0829 41.027 43.1371 41.0042 43.1914 40.9814C43.2385 40.9621 43.2855 40.9432 43.3331 40.9249C43.3882 40.904 43.4441 40.8844 43.4999 40.8648C43.5475 40.8482 43.5951 40.8315 43.6434 40.8158C43.7002 40.7976 43.7574 40.7807 43.8148 40.7641C43.8628 40.7502 43.9105 40.7358 43.9588 40.7229C43.9772 40.7181 43.9957 40.7142 44.0141 40.7094C43.3397 41.3642 42.8392 42.1768 42.5579 43.0736C42.0171 42.931 41.4936 42.7296 40.9967 42.4729C41.0042 42.4649 41.0106 42.457 41.0172 42.4501ZM40.6895 42.8169C41.2369 43.1134 41.8173 43.3443 42.4187 43.5049C42.1239 44.5299 41.9691 45.5901 41.9587 46.6567H39.2267C39.2764 45.2502 39.7908 43.8999 40.6895 42.8169ZM40.6895 50.952C39.7908 49.869 39.2764 48.5187 39.2267 47.1123H41.9587C41.9691 48.1788 42.1238 49.239 42.4187 50.264C41.8173 50.4247 41.2369 50.6556 40.6895 50.952ZM43.9574 53.047C43.9114 53.0354 43.8638 53.0203 43.8164 53.0064C43.7587 52.9896 43.7008 52.9727 43.6439 52.9543C43.5958 52.9388 43.5484 52.9221 43.501 52.9055C43.445 52.8862 43.3889 52.8663 43.3335 52.8451C43.2862 52.8271 43.2394 52.8082 43.1925 52.7891C43.138 52.7663 43.0836 52.7435 43.0296 52.7208C42.9831 52.7003 42.9369 52.6792 42.8908 52.6574C42.8377 52.6324 42.7849 52.6069 42.7313 52.5804C42.6858 52.5576 42.6402 52.5349 42.5946 52.51C42.5431 52.4825 42.4921 52.4542 42.441 52.4251C42.3955 52.3998 42.3522 52.3738 42.3082 52.3474C42.2581 52.3173 42.2089 52.2863 42.1596 52.2547C42.1164 52.2271 42.0731 52.1991 42.0305 52.1704C41.9819 52.1376 41.9338 52.1034 41.8862 52.0692C41.8445 52.0394 41.8028 52.0095 41.7618 51.9781C41.7146 51.9426 41.6684 51.9059 41.6224 51.869C41.582 51.8369 41.5419 51.805 41.5025 51.7719C41.4569 51.7341 41.413 51.6947 41.3688 51.6555C41.33 51.6211 41.2911 51.5872 41.2532 51.5521C41.2097 51.5115 41.1676 51.4694 41.1252 51.4277C41.0885 51.3915 41.0511 51.3557 41.0151 51.3186C41.0085 51.3115 41.0021 51.3042 40.9955 51.2974C41.4924 51.0406 42.016 50.8391 42.5568 50.6964C42.8381 51.5933 43.3386 52.4058 44.013 53.0607C43.9945 53.0559 43.9759 53.052 43.9574 53.047ZM45.3735 53.2452C44.3985 53.1067 43.5439 52.0893 43.0061 50.5869C43.7836 50.4128 44.5769 50.3194 45.3735 50.3082V53.2452ZM45.3735 49.8526C44.5285 49.8637 43.687 49.9641 42.863 50.152C42.5769 49.1636 42.426 48.1411 42.4144 47.1123H45.3735V49.8526ZM45.3735 46.6567H42.4144C42.426 45.6278 42.5769 44.6053 42.863 43.617C43.687 43.8048 44.5285 43.9052 45.3735 43.9163V46.6567ZM45.3735 43.4607C44.5769 43.4496 43.7836 43.3562 43.0061 43.1821C43.5439 41.6797 44.3985 40.6623 45.3735 40.5238V43.4607ZM50.5132 42.8169C51.4119 43.9 51.9263 45.2503 51.976 46.6567H49.2441C49.2336 45.5901 49.0789 44.5299 48.784 43.5049C49.3854 43.3443 49.9658 43.1133 50.5132 42.8169ZM47.2435 40.7217C47.2914 40.7336 47.339 40.7486 47.3864 40.7625C47.444 40.7794 47.5019 40.7962 47.5589 40.8147C47.6069 40.8302 47.6543 40.8468 47.7017 40.8634C47.7578 40.8828 47.8138 40.9026 47.8692 40.9238C47.9166 40.9418 47.9633 40.9607 48.0102 40.9798C48.0647 41.0026 48.1192 41.0254 48.1732 41.0482C48.2196 41.0687 48.2659 41.0898 48.3119 41.1115C48.365 41.1366 48.4179 41.1621 48.4714 41.1885C48.517 41.2113 48.5626 41.2341 48.6081 41.2589C48.6596 41.2865 48.7107 41.3147 48.7617 41.3439C48.8073 41.3692 48.8506 41.3951 48.8945 41.4216C48.9447 41.4516 48.9939 41.4826 49.0431 41.5143C49.0864 41.5418 49.1297 41.5699 49.1723 41.5986C49.2208 41.6314 49.2687 41.6653 49.3163 41.6995C49.3582 41.7293 49.3999 41.7594 49.4412 41.7906C49.4881 41.8259 49.5341 41.8626 49.5804 41.8995C49.6205 41.9314 49.6608 41.9633 49.7002 41.9966C49.7458 42.0344 49.7898 42.0738 49.834 42.113C49.8727 42.1474 49.9117 42.1813 49.9495 42.2164C49.993 42.2569 50.0352 42.2991 50.0775 42.3408C50.1142 42.377 50.1516 42.4128 50.1876 42.4499C50.1942 42.457 50.2006 42.4642 50.2072 42.4711C49.7103 42.7279 49.1868 42.9294 48.6459 43.072C48.3641 42.1751 47.863 41.3626 47.1879 40.7081C47.2064 40.7128 47.2251 40.7167 47.2435 40.7217ZM45.8292 40.5238C46.8042 40.6623 47.6589 41.6797 48.1966 43.1821C47.4192 43.3561 46.6258 43.4495 45.8292 43.4607V40.5238ZM45.8292 43.9163C46.6743 43.9052 47.5158 43.8049 48.3397 43.617C48.6258 44.6053 48.7767 45.6278 48.7884 46.6567H45.8292V43.9163ZM45.8292 47.1123H48.7884C48.7768 48.1411 48.6258 49.1636 48.3397 50.152C47.5158 49.9641 46.6743 49.8638 45.8292 49.8526V47.1123ZM45.8292 53.2452V50.3082C46.6259 50.3193 47.4192 50.4127 48.1966 50.5869C47.6589 52.0893 46.8042 53.1067 45.8292 53.2452ZM50.1856 51.3188C50.1496 51.3559 50.1124 51.3917 50.0757 51.4279C50.0333 51.4696 49.991 51.5118 49.9474 51.5523C49.9096 51.5876 49.8707 51.6207 49.8319 51.656C49.7877 51.6952 49.7437 51.7343 49.6986 51.7722C49.6588 51.8054 49.6182 51.8375 49.5776 51.8699C49.5321 51.9063 49.4865 51.9428 49.4396 51.9779C49.3981 52.0091 49.3559 52.0394 49.3136 52.069C49.2664 52.1027 49.219 52.1373 49.1709 52.1688C49.1279 52.1979 49.0843 52.2262 49.0406 52.254C48.9918 52.2854 48.9427 52.3158 48.8932 52.3451C48.8476 52.3718 48.8041 52.3977 48.7592 52.4235C48.7087 52.4522 48.658 52.4802 48.607 52.5075C48.5614 52.5318 48.5158 52.5556 48.4703 52.5788C48.4183 52.605 48.3659 52.6303 48.3133 52.6552C48.2677 52.6768 48.2203 52.6984 48.1734 52.7189C48.1198 52.7417 48.0656 52.7645 48.0114 52.7873C47.9642 52.8064 47.9173 52.8256 47.8699 52.8436C47.8143 52.8647 47.7585 52.8846 47.7024 52.9039C47.655 52.9206 47.6076 52.9372 47.5595 52.9527C47.5026 52.9711 47.4456 52.988 47.3875 53.0046C47.3399 53.0187 47.292 53.0329 47.244 53.0458C47.2255 53.0506 47.2071 53.0545 47.1886 53.0593C47.863 52.4045 48.3636 51.5919 48.6448 50.6951C49.1856 50.8377 49.7092 51.0391 50.2061 51.2958C50.1985 51.304 50.1922 51.312 50.1856 51.3188ZM50.5132 50.952C49.9659 50.6555 49.3855 50.4246 48.784 50.264C49.0789 49.239 49.2336 48.1788 49.2441 47.1123H51.976C51.9264 48.5187 51.412 49.869 50.5132 50.952Z" fill="#7C343F"/>
</g>
<g clip-path="url(#clip3)">
<path d="M25.7267 43.2019L18.2706 40.0275C18.1707 39.985 18.0617 39.985 17.9618 40.0275L10.5058 43.2019C10.3204 43.2808 10.1963 43.4921 10.1961 43.7293C10.1958 43.9666 10.3195 44.1782 10.5047 44.2576L17.9608 47.4561C18.0111 47.4777 18.0637 47.4885 18.1162 47.4885C18.1688 47.4885 18.2214 47.4777 18.2717 47.4561L25.7278 44.2576C25.913 44.1782 26.0366 43.9666 26.0364 43.7293C26.0362 43.4921 25.9121 43.2808 25.7267 43.2019Z" fill="#FDFBEC"/>
<path d="M24.9218 50.6766V45.792L23.9936 46.1902V50.6766C23.7141 50.8707 23.5257 51.2345 23.5257 51.6517C23.5257 52.0689 23.7141 52.4327 23.9936 52.6269V55.3789C23.9936 55.6881 24.2014 55.9388 24.4577 55.9388C24.714 55.9388 24.9218 55.6881 24.9218 55.3789V52.6269C25.2013 52.4328 25.3897 52.0689 25.3897 51.6518C25.3897 51.2346 25.2014 50.8707 24.9218 50.6766Z" fill="#FDFBEC"/>
<path d="M18.1162 48.6085C17.9569 48.6085 17.8 48.5758 17.6499 48.5114L13.4583 46.7133V49.1775C13.4583 49.7804 13.9795 50.2902 15.0075 50.6928C15.9035 51.0438 17.0075 51.237 18.1162 51.237C19.2249 51.237 20.329 51.0438 21.225 50.6928C22.2529 50.2902 22.7742 49.7804 22.7742 49.1775V46.7133L18.5826 48.5114C18.4324 48.5758 18.2755 48.6085 18.1162 48.6085Z" fill="#FDFBEC"/>
</g>
<defs>
<clipPath id="clip0">
<rect width="14.5658" height="14.5631" fill="white" transform="translate(10.014 11.6505)"/>
</clipPath>
<clipPath id="clip1">
<rect width="15.6583" height="15.6553" fill="white" transform="translate(38.7815 12.0146)"/>
</clipPath>
<clipPath id="clip2">
<rect width="13.6555" height="13.6529" fill="white" transform="translate(38.7815 40.0486)"/>
</clipPath>
<clipPath id="clip3">
<rect width="15.8403" height="19.1141" fill="white" transform="translate(10.1961 38.4102)"/>
</clipPath>
</defs>
</svg>
