<svg width="41" height="39" viewBox="0 0 41 39" fill="none" xmlns="http://www.w3.org/2000/svg">
<g clip-path="url(#clip0)">
<path d="M36.6758 28.4964V12.3396C36.6758 12.1019 36.5532 11.8784 36.3461 11.7385L34.3692 10.4049L35.9257 9.5022C36.149 9.37275 36.2895 9.14955 36.3014 8.90546C36.3129 8.66136 36.1947 8.42743 35.9848 8.27998L34.5403 7.26442V6.79161H35.875C36.3173 6.79161 36.6758 6.45899 36.6758 6.04858V4.56253C36.6758 2.14538 34.5562 0.17868 31.9512 0.17868H4.64453C4.6364 0.17868 4.62889 0.179551 4.62107 0.179841C4.60262 0.179551 4.58479 0.17868 4.56633 0.17868C3.30541 0.17868 2.13396 0.756557 1.2678 1.80608C0.450127 2.79668 0 4.10278 0 5.48377C0 7.96652 1.7514 9.98662 3.90412 9.98662H8.33438V21.7636C8.33438 22.0155 8.4717 22.25 8.69942 22.387L10.2694 23.3315L8.60152 24.7142C8.43166 24.855 8.33438 25.0567 8.33438 25.2683V31.7076C8.33438 31.7477 8.33876 31.7869 8.34533 31.8252C8.33876 31.8638 8.33438 31.903 8.33438 31.943C8.33438 33.8334 8.86052 35.4245 9.85555 36.5443C10.8168 37.6257 12.1838 38.2216 13.7043 38.2216H35.7148C38.6292 38.2216 41 36.0218 41 33.3176C41 30.9182 39.1326 28.9169 36.6758 28.4964ZM6.57235 8.50057C6.8082 8.08813 6.94177 7.61213 6.94177 7.10072C6.94177 5.3877 5.74592 4.19102 4.03331 4.19102C3.591 4.19102 3.23253 4.52364 3.23253 4.93404C3.23253 5.34445 3.591 5.67707 4.03331 5.67707C4.85161 5.67707 5.34021 6.20938 5.34021 7.10072C5.34021 8.01006 4.60011 8.50057 3.90412 8.50057C2.65603 8.50057 1.60156 7.119 1.60156 5.48377C1.60156 3.37804 2.93161 1.66473 4.56633 1.66473C5.69868 1.66473 6.58392 1.99126 7.19671 2.63502C7.95182 3.42768 8.33438 4.71375 8.33438 6.45725V8.50057H6.57235ZM11.0911 35.5987C10.3354 34.7482 9.93594 33.4842 9.93594 31.943C9.93594 31.903 9.93156 31.8638 9.925 31.8252C9.93156 31.7869 9.93594 31.7477 9.93594 31.7076V25.6006L12.1181 23.7912C12.3042 23.6371 12.4024 23.411 12.383 23.18C12.3639 22.9492 12.2297 22.7397 12.0205 22.6137L9.93594 21.3598V6.45725C9.93594 4.3492 9.422 2.73719 8.40945 1.66473H31.9512C33.6732 1.66473 35.0742 2.96474 35.0742 4.56253V5.30556H33.7395C33.2975 5.30556 32.9387 5.63818 32.9387 6.04858V7.63361C32.9387 7.86638 33.0563 8.08552 33.2562 8.226L34.0917 8.81345L32.5145 9.72801C32.2887 9.85891 32.1479 10.0853 32.1385 10.332C32.1292 10.5787 32.2527 10.8138 32.4679 10.9589L35.0742 12.7178V28.4137H14.7156C14.6762 28.4137 14.6374 28.4171 14.5992 28.4224C14.5223 28.4171 14.4447 28.4137 14.3662 28.4137C12.663 28.4137 11.3286 29.6814 11.3286 31.2996C11.3286 33.0129 12.5244 34.2093 14.237 34.2093C14.6793 34.2093 15.0378 33.8766 15.0378 33.4662C15.0378 33.0558 14.6793 32.7232 14.237 32.7232C13.4187 32.7232 12.9301 32.1909 12.9301 31.2996C12.9301 30.3902 13.6702 29.8997 14.3662 29.8997C15.6143 29.8997 16.6688 31.2813 16.6688 32.9165C16.6688 35.0222 15.339 36.7355 13.7043 36.7355C12.6558 36.7355 11.7521 36.3426 11.0911 35.5987ZM35.7148 36.7355H16.8799C16.9212 36.6891 16.9625 36.6427 17.0025 36.5942C17.7701 35.6643 18.2137 34.456 18.2653 33.169H30.75C31.1923 33.169 31.5508 32.8364 31.5508 32.426C31.5508 32.0156 31.1923 31.683 30.75 31.683H18.1202C17.9544 31.0119 17.6572 30.4039 17.2618 29.8997H35.7148C37.7459 29.8997 39.3984 31.4331 39.3984 33.3176C39.3984 35.2022 37.7459 36.7355 35.7148 36.7355Z" fill="#7C343F"/>
<path d="M15.1635 7.46032C15.3741 7.46032 15.5799 7.3808 15.7297 7.24264C15.8786 7.10449 15.9643 6.91263 15.9643 6.7173C15.9643 6.52196 15.8786 6.33011 15.7297 6.19196C15.5799 6.0538 15.3741 5.97427 15.1635 5.97427C14.9521 5.97427 14.7463 6.0538 14.5974 6.19196C14.4485 6.33011 14.3628 6.52196 14.3628 6.7173C14.3628 6.91263 14.4485 7.10449 14.5974 7.24264C14.7463 7.3808 14.9521 7.46032 15.1635 7.46032Z" fill="#7C343F"/>
<path d="M18.5781 7.46032H30.1378C30.5801 7.46032 30.9386 7.1277 30.9386 6.7173C30.9386 6.30689 30.5801 5.97427 30.1378 5.97427H18.5781C18.1358 5.97427 17.7773 6.30689 17.7773 6.7173C17.7773 7.1277 18.1358 7.46032 18.5781 7.46032Z" fill="#7C343F"/>
<path d="M15.1632 11.6213H30.1378C30.5801 11.6213 30.9386 11.2887 30.9386 10.8782C30.9386 10.4678 30.5801 10.1352 30.1378 10.1352H15.1632C14.7212 10.1352 14.3624 10.4678 14.3624 10.8782C14.3624 11.2887 14.7212 11.6213 15.1632 11.6213Z" fill="#7C343F"/>
<path d="M15.1632 15.7822H30.1378C30.5801 15.7822 30.9386 15.4496 30.9386 15.0392C30.9386 14.6288 30.5801 14.2962 30.1378 14.2962H15.1632C14.7212 14.2962 14.3624 14.6288 14.3624 15.0392C14.3624 15.4496 14.7212 15.7822 15.1632 15.7822Z" fill="#7C343F"/>
<path d="M15.1632 19.9432H30.1378C30.5801 19.9432 30.9386 19.6105 30.9386 19.2001C30.9386 18.7897 30.5801 18.4571 30.1378 18.4571H15.1632C14.7212 18.4571 14.3624 18.7897 14.3624 19.2001C14.3624 19.6105 14.7212 19.9432 15.1632 19.9432Z" fill="#7C343F"/>
<path d="M15.1632 24.1041H30.1378C30.5801 24.1041 30.9386 23.7715 30.9386 23.3611C30.9386 22.9507 30.5801 22.6181 30.1378 22.6181H15.1632C14.7212 22.6181 14.3624 22.9507 14.3624 23.3611C14.3624 23.7715 14.7212 24.1041 15.1632 24.1041Z" fill="#7C343F"/>
<path d="M33.8627 31.683C33.6519 31.683 33.4454 31.7625 33.2966 31.9007C33.1477 32.0388 33.062 32.2307 33.062 32.426C33.062 32.6213 33.1473 32.8132 33.2966 32.9513C33.4454 33.0895 33.6519 33.169 33.8627 33.169C34.0732 33.169 34.2797 33.0895 34.4286 32.9513C34.5778 32.8132 34.6635 32.6213 34.6635 32.426C34.6635 32.2307 34.5778 32.0388 34.4286 31.9007C34.2797 31.7625 34.0732 31.683 33.8627 31.683Z" fill="#7C343F"/>
</g>
<defs>
<clipPath id="clip0">
<rect width="41" height="38.0429" fill="white" transform="translate(0 0.17868)"/>
</clipPath>
</defs>
</svg>
