<svg width="41" height="40" viewBox="0 0 41 40" fill="none" xmlns="http://www.w3.org/2000/svg">
<path d="M20.0756 26.0078H20.9243C20.9311 25.9414 20.9598 25.8766 21.013 25.8256L22.59 24.3157C22.4638 24.1108 22.3918 23.875 22.3918 23.6278V22.9879C21.8247 23.2721 21.1813 23.434 20.5 23.434C19.8187 23.434 19.1754 23.2721 18.6082 22.9879V23.6278C18.6082 23.8753 18.5378 24.1121 18.4114 24.3171L19.987 25.8256C20.04 25.8767 20.0685 25.9414 20.0756 26.0078Z" fill="#F9D0B4"/>
<path d="M9.63335 13.9629C8.49384 13.4478 7.16358 13.4765 6.04537 14.0491V19.5822C7.09551 19.0445 8.33288 18.9865 9.42338 19.408C9.61429 19.4818 9.8124 19.3251 9.8124 19.0931V14.2728C9.8124 14.1374 9.74274 14.0124 9.63335 13.9629Z" fill="#EDF4FC"/>
<path d="M2.45738 13.963C2.348 14.0123 2.27833 14.1375 2.27833 14.2729V19.0931C2.27833 19.3251 2.47644 19.4819 2.66735 19.4081C3.75801 18.9866 4.99522 19.0445 6.04536 19.5823V14.0493C4.92715 13.4767 3.59689 13.4479 2.45738 13.963Z" fill="#EDF4FC"/>
<path d="M10.9333 14.5407H9.81238V19.0931C9.81238 19.3251 9.61426 19.4818 9.42336 19.4081C8.33269 18.9865 7.09549 19.0445 6.04534 19.5823C4.9952 19.0445 3.75783 18.9865 2.66733 19.4081C2.47642 19.4818 2.27831 19.3251 2.27831 19.0931V14.5407H1.15721C0.976396 14.5407 0.830013 14.681 0.830013 14.854V20.5834C0.830013 20.7566 0.976556 20.8969 1.15721 20.8969H10.9333C11.1141 20.8969 11.2607 20.7566 11.2607 20.5834V14.854C11.2607 14.681 11.1141 14.5407 10.9333 14.5407Z" fill="#70D6F9"/>
<path d="M14.3856 3.08722C14.3554 2.85675 14.1506 2.68347 13.908 2.68347H7.87344C7.6308 2.68347 7.42596 2.85659 7.39586 3.08722C7.37696 3.23121 7.36719 3.3778 7.36719 3.52685C7.36719 5.43226 8.94473 6.97702 10.8906 6.97702C12.8365 6.97702 14.4141 5.43226 14.4141 3.52685C14.4141 3.3778 14.4043 3.23121 14.3856 3.08722Z" fill="#EDF4FC"/>
<path d="M13.4944 6.97699H8.2868C8.08853 6.97699 7.92773 7.13094 7.92773 7.32078C7.92773 7.97785 8.48396 8.5104 9.17023 8.5104H12.611C13.2973 8.5104 13.8535 7.97785 13.8535 7.32078C13.8535 7.13094 13.6927 6.97699 13.4944 6.97699Z" fill="#EDF4FC"/>
<path d="M28.3524 4.75189C28.4218 4.81829 28.4421 4.9129 28.4157 4.99693L29.4713 6.07308C29.4969 6.06142 29.5214 6.04624 29.5425 6.026L30.723 4.89572L29.3925 3.62177L28.2821 4.68488L28.3524 4.75189Z" fill="#EDF4FC"/>
<path d="M27.1719 3.62158L28.3524 4.75186C28.4528 4.848 28.4528 5.0038 28.3524 5.09994L27.3854 6.02582C27.285 6.12196 27.1223 6.12196 27.0218 6.02582L25.8413 4.89554L27.1719 3.62158Z" fill="#EDF4FC"/>
<path d="M27.2778 6.08628C27.2171 6.10391 27.1512 6.09947 27.0933 6.07294L24.9491 8.25866C24.7055 8.50692 24.7119 8.89549 24.9635 9.13623C25.2151 9.37713 25.6208 9.38311 25.8801 9.15003L28.2824 6.98961L27.2778 6.08628Z" fill="#D1956D"/>
<path d="M27.3854 6.02581L28.3524 5.09993C28.3835 5.07018 28.4036 5.03446 28.4155 4.99689L31.6154 8.25876C31.859 8.50702 31.8526 8.89558 31.601 9.13633C31.3496 9.37707 30.9437 9.38321 30.6844 9.15013L27.2776 6.08638C27.317 6.07487 27.3543 6.05555 27.3854 6.02581Z" fill="#D1956D"/>
<path d="M30.7231 4.89561L29.3926 3.62165C29.3926 3.62165 29.3926 2.60255 30.1909 1.83814C30.8444 1.21251 31.9434 1.6963 32.6857 1.40373C32.9279 1.3082 33.2017 1.45617 33.2185 1.70642C33.2824 2.65561 33.2961 4.6219 30.7231 4.89561Z" fill="#F5C84C"/>
<path d="M25.8414 4.89561L27.1719 3.62165C27.1719 3.62165 27.1719 2.60255 26.3736 1.83814C25.7201 1.21251 24.6211 1.6963 23.8788 1.40373C23.6367 1.3082 23.3628 1.45617 23.346 1.70642C23.2821 2.65561 23.2683 4.6219 25.8414 4.89561Z" fill="#F5C84C"/>
<path d="M37.3824 15.1863L32.5964 16.1683V14.368L37.3824 13.386V15.1863Z" fill="#FC657E"/>
<path d="M36.1859 20.4232C36.8467 20.4232 37.3824 19.9103 37.3824 19.2776C37.3824 18.6449 36.8467 18.132 36.1859 18.132C35.5251 18.132 34.9894 18.6449 34.9894 19.2776C34.9894 19.9103 35.5251 20.4232 36.1859 20.4232Z" fill="#FC657E"/>
<path d="M31.3998 21.4052C32.0606 21.4052 32.5963 20.8923 32.5963 20.2596C32.5963 19.6269 32.0606 19.114 31.3998 19.114C30.739 19.114 30.2033 19.6269 30.2033 20.2596C30.2033 20.8923 30.739 21.4052 31.3998 21.4052Z" fill="#FC657E"/>
<path d="M40.0532 30.82L39.5975 29.4154C39.5877 29.3852 39.5765 29.3557 39.5642 29.3272C39.3028 28.7238 38.4729 28.5763 37.9609 29.0079L37.7583 29.1788C37.4721 29.42 37.0227 29.3155 36.8838 28.9756C36.8286 28.6789 36.4978 28.51 36.2099 28.6315C35.831 28.7911 35.6031 29.1668 35.6458 29.561L35.7209 30.2529C35.7688 30.6432 35.5523 31.0188 35.1812 31.1871C34.7083 31.4014 33.8013 31.8075 31.9835 32.6413C31.894 32.6824 31.7856 32.6558 31.7289 32.5779L30.9798 31.5474L28.2626 33.5297L29.9563 35.7574C30.4427 36.3971 31.3672 36.5604 32.0599 36.1286L36.6524 33.2667C37.0462 33.0212 37.4642 32.8129 37.9002 32.6449L39.4426 32.0504C39.9497 31.855 40.2152 31.3197 40.0532 30.82Z" fill="#F9D0B4"/>
<path d="M0.946775 30.82L1.40242 29.4154C1.41219 29.3852 1.4234 29.3557 1.43573 29.3272C1.69711 28.7238 2.52704 28.5763 3.03906 29.0079L3.24165 29.1788C3.52785 29.42 3.97725 29.3155 4.11611 28.9756C4.17136 28.6789 4.50208 28.51 4.79004 28.6315C5.16897 28.7911 5.39688 29.1668 5.35411 29.561L5.279 30.2529C5.23111 30.6432 5.44765 31.0188 5.81873 31.1871C6.29167 31.4014 7.19863 31.8075 9.01641 32.6413C9.10594 32.6824 9.21436 32.6558 9.27106 32.5779L10.0201 31.5474L12.7373 33.5297L11.0437 35.7574C10.5573 36.3971 9.63269 36.5604 8.94001 36.1286L4.34753 33.2667C3.95371 33.0212 3.5357 32.8129 3.09976 32.6449L1.55729 32.0504C1.05024 31.855 0.784697 31.3197 0.946775 30.82Z" fill="#F9D0B4"/>
<path d="M31.155 30.9754L28.7431 27.439C28.5613 27.2009 28.3528 26.9825 28.1214 26.7881C27.6198 26.3667 27.0208 26.0655 26.3736 25.9096C25.3124 25.6373 24.7518 25.5634 23.9283 25.2407C23.9145 25.2899 23.8889 25.3367 23.8486 25.3754L22.1954 26.9581C22.0732 27.0751 21.8749 27.0751 21.7527 26.9581L21.013 26.2499C20.944 26.1838 20.9153 26.0944 20.9243 26.008H20.0756C20.0846 26.0944 20.0561 26.1836 19.9869 26.2499L19.2471 26.9581C19.1249 27.0751 18.9266 27.0751 18.8044 26.9581L17.1513 25.3754C17.1109 25.3367 17.0853 25.2899 17.0715 25.2407C16.2477 25.5635 15.6904 25.6365 14.6263 25.9096C13.9791 26.0655 13.3801 26.3667 12.8785 26.7881C12.6471 26.9825 12.4385 27.2009 12.2568 27.439L9.84481 30.9754C9.72389 31.1338 9.75752 31.3558 9.92056 31.4748L12.8075 33.5808C12.9722 33.7009 13.2071 33.6713 13.3337 33.5145L14.9234 31.4986V38.4912C14.9234 38.7015 15.1015 38.872 15.321 38.872H25.6788C25.8984 38.872 26.0765 38.7015 26.0765 38.4912V31.4986L27.6662 33.5145C27.7927 33.6713 28.0277 33.7009 28.1923 33.5808L31.0793 31.4748C31.2423 31.3558 31.276 31.1338 31.155 30.9754Z" fill="#70D6F9"/>
<path d="M31.2136 36.7531C30.6087 36.7531 30.0138 36.4846 29.6325 35.9832L27.9899 33.8228C27.8597 33.6516 27.8993 33.4117 28.078 33.2872C28.2568 33.1626 28.5074 33.2005 28.6374 33.3715L30.28 35.5319C30.641 36.0073 31.3271 36.1281 31.8414 35.8076L36.4342 32.9455C36.8483 32.6873 37.2913 32.4665 37.7508 32.2895L39.2933 31.695C39.6045 31.5751 39.7704 31.2408 39.6708 30.9341L39.2151 29.5294C39.2092 29.5111 39.2022 29.4923 39.1941 29.474C39.0998 29.2564 38.9046 29.1836 38.7968 29.1597C38.594 29.1143 38.3802 29.1655 38.2257 29.2961L38.0229 29.4668C37.7904 29.6626 37.4721 29.7379 37.1714 29.668C36.8706 29.5981 36.6238 29.3915 36.511 29.1157C36.5014 29.0922 36.4944 29.0678 36.4897 29.0431C36.4837 29.0108 36.4625 28.9939 36.4459 28.9853C36.429 28.9766 36.4023 28.9694 36.3712 28.9826C36.1505 29.0755 36.0192 29.2922 36.044 29.5217L36.1191 30.2139C36.1866 30.763 35.8786 31.2957 35.3525 31.5339L34.9976 31.6942C34.4643 31.935 33.5964 32.3269 32.1566 32.9875C31.8883 33.1105 31.5702 33.0308 31.4003 32.7974L30.7057 31.8418C30.5793 31.668 30.624 31.4291 30.8056 31.3083C30.9866 31.1875 31.2365 31.2299 31.3628 31.404L31.9612 32.2271C33.3135 31.607 34.1406 31.2336 34.656 31.001L35.0096 30.8411C35.2252 30.7435 35.351 30.5253 35.323 30.2984L35.2474 29.6011C35.1862 29.0393 35.5081 28.5087 36.0484 28.2812C36.2988 28.1757 36.581 28.186 36.8224 28.3091C37.0471 28.4239 37.2066 28.6213 37.2662 28.8562C37.2928 28.9011 37.3352 28.9172 37.36 28.9232C37.3884 28.9301 37.4432 28.9343 37.4936 28.8916L37.6962 28.721C38.0445 28.4273 38.5236 28.3117 38.9776 28.4131C39.4161 28.5104 39.7648 28.7904 39.9341 29.181C39.9509 29.2204 39.9661 29.2606 39.9795 29.3014L40.4355 30.707C40.658 31.3922 40.2874 32.1386 39.5921 32.4067L38.0497 33.0012C37.6384 33.1596 37.2417 33.3572 36.8709 33.5885L32.2781 36.4506C31.9496 36.6547 31.5797 36.7531 31.2136 36.7531Z" fill="black"/>
<path d="M9.78632 36.7531C9.42021 36.7531 9.05025 36.6547 8.72161 36.4498L4.12912 33.588C3.7582 33.3566 3.3615 33.159 2.95021 33.0006L1.40775 32.406C0.712511 32.138 0.34207 31.3915 0.564367 30.7063L1.02001 29.3018C1.03378 29.26 1.049 29.2198 1.06566 29.1808C1.2351 28.7898 1.5836 28.5098 2.02227 28.4124C2.47583 28.3112 2.95518 28.4267 3.30352 28.7202L3.50644 28.8912C3.55657 28.9333 3.61134 28.929 3.63985 28.9226C3.66467 28.9168 3.70711 28.9005 3.7337 28.8556C3.79328 28.6207 3.95279 28.4233 4.17765 28.3085C4.41917 28.1852 4.7012 28.1752 4.95185 28.2806C5.49189 28.5081 5.81381 29.0387 5.75263 29.6007L5.67752 30.2925C5.64901 30.5249 5.77489 30.7431 5.9903 30.8404L6.34409 31.0004C6.85947 31.2331 7.68652 31.6064 9.03888 32.2265L9.64795 31.3885C9.77415 31.2146 10.0243 31.1723 10.2051 31.2928C10.3868 31.4136 10.4314 31.6527 10.3051 31.8263L9.5999 32.7966C9.43014 33.0301 9.11207 33.11 8.84365 32.9869C7.40368 32.3263 6.53595 31.9345 6.00263 31.6936L5.64757 31.5332C5.12161 31.2949 4.81363 30.7624 4.88154 30.2079L4.95617 29.5211C4.981 29.2914 4.84967 29.0749 4.62913 28.9818C4.5979 28.9688 4.57148 28.976 4.55434 28.9846C4.53768 28.9931 4.51654 29.01 4.51046 29.0424C4.50597 29.067 4.49877 29.0913 4.48916 29.1149C4.37641 29.3908 4.12961 29.5973 3.82883 29.6672C3.52838 29.7371 3.20983 29.6622 2.97744 29.4662L2.77452 29.2952C2.61981 29.1647 2.406 29.1134 2.20341 29.1589C2.09546 29.1828 1.90023 29.2557 1.8059 29.4737C1.79805 29.4915 1.791 29.5104 1.78476 29.5297L1.32927 30.9337C1.22966 31.2405 1.39558 31.5748 1.70676 31.6947L3.24923 32.2892C3.70871 32.4662 4.15171 32.6871 4.56603 32.9453L9.15851 35.8072C9.67309 36.1284 10.3589 36.007 10.72 35.5316L12.3576 33.3778C12.4878 33.2066 12.7382 33.1688 12.9171 33.2934C13.0958 33.4181 13.1352 33.6579 13.0051 33.8291L11.3675 35.983C10.9862 36.4845 10.3914 36.7531 9.78632 36.7531Z" fill="black"/>
<path d="M25.6788 39.2553H15.321C14.8811 39.2553 14.5231 38.9126 14.5231 38.4912V32.6425L13.6531 33.7455C13.3903 34.0713 12.9033 34.1325 12.5649 33.8856L9.67806 31.7796C9.34734 31.5384 9.27511 31.0829 9.51438 30.7589L11.9217 27.2292C11.9254 27.2237 11.9295 27.2182 11.9335 27.2128C12.1323 26.9523 12.3615 26.7125 12.6144 26.5C13.1613 26.0405 13.8232 25.7078 14.5286 25.5377C14.8497 25.4554 15.1293 25.3901 15.3835 25.3309C15.9392 25.2012 16.3406 25.1076 16.8551 24.911C17.0608 24.8325 17.2935 24.9285 17.3755 25.1251C17.4575 25.3218 17.3574 25.5448 17.1519 25.6233C16.5846 25.84 16.1381 25.9441 15.5729 26.0758C15.3239 26.1339 15.05 26.1977 14.7299 26.2799C14.1411 26.4219 13.5942 26.6968 13.1424 27.0762C12.9361 27.2498 12.7489 27.4452 12.586 27.6574L10.1811 31.1831L13.0309 33.262L14.6037 31.2676C14.7073 31.1361 14.8878 31.0829 15.0503 31.1353C15.2137 31.1876 15.3236 31.334 15.3236 31.4987V38.4914L25.6788 38.4886L25.6761 31.4986C25.6761 31.3339 25.7861 31.1874 25.9493 31.1352C26.112 31.0827 26.2924 31.1359 26.396 31.2675L27.9687 33.262L30.8185 31.183L28.4136 27.6572C28.2507 27.445 28.0635 27.2496 27.8571 27.0761C27.4054 26.6965 26.8585 26.4216 26.2757 26.281C25.9514 26.1979 25.6785 26.1342 25.4301 26.0763C24.8622 25.9439 24.4136 25.8394 23.8444 25.6215C23.639 25.543 23.5391 25.3198 23.6211 25.1233C23.7033 24.9268 23.9358 24.8308 24.1415 24.9095C24.6583 25.1072 25.0614 25.2012 25.6195 25.3313C25.8732 25.3905 26.1519 25.4556 26.4772 25.539C27.1766 25.7076 27.8385 26.0404 28.3853 26.4998C28.6383 26.7125 28.8675 26.9522 29.0663 27.2127C29.0703 27.2181 29.0744 27.2236 29.0781 27.2291L31.4854 30.7587C31.7245 31.0827 31.6525 31.5383 31.3219 31.7795L28.4348 33.8855C28.0967 34.1324 27.6098 34.071 27.3494 33.7487L26.4769 32.6422V38.4909C26.4769 38.9126 26.1189 39.2553 25.6788 39.2553Z" fill="black"/>
<path d="M19.987 25.8259L18.3339 24.2431C18.2117 24.1261 18.0134 24.1261 17.8912 24.2431L17.1514 24.9514C17.0292 25.0684 17.0292 25.2582 17.1514 25.3752L18.8046 26.958C18.9268 27.075 19.125 27.075 19.2472 26.958L19.987 26.2497C20.1092 26.1327 20.1092 25.9429 19.987 25.8259Z" fill="#9BE5F9"/>
<path d="M21.0129 25.8259L22.666 24.2431C22.7882 24.1261 22.9865 24.1261 23.1087 24.2431L23.8485 24.9514C23.9707 25.0684 23.9707 25.2582 23.8485 25.3752L22.1953 26.958C22.0731 27.075 21.8749 27.075 21.7527 26.958L21.0129 26.2497C20.8907 26.1327 20.8907 25.9429 21.0129 25.8259Z" fill="#9BE5F9"/>
<path d="M19.0259 27.4289C18.843 27.4289 18.6605 27.3623 18.5214 27.2291L16.8683 25.6463C16.5901 25.3801 16.5901 24.9466 16.8683 24.6803L17.6081 23.972C17.8861 23.7053 18.3389 23.7055 18.6171 23.972L20.2702 25.5548C20.2703 25.5548 20.2703 25.5549 20.2703 25.5549C20.5481 25.8211 20.5481 26.2545 20.2703 26.5207L19.5304 27.2291C19.3912 27.3623 19.2087 27.4289 19.0259 27.4289ZM17.4961 25.1633L19.0258 26.628L19.6422 26.0378L18.1124 24.5732L17.4961 25.1633Z" fill="black"/>
<path d="M21.974 27.4289C21.7912 27.4289 21.6087 27.3623 21.4697 27.2291L20.7299 26.5208C20.452 26.2545 20.452 25.8211 20.7297 25.5549C20.7297 25.5549 20.7297 25.5548 20.7299 25.5548L22.383 23.972C22.6609 23.7056 23.1138 23.7053 23.392 23.972L24.1318 24.6803C24.41 24.9465 24.41 25.38 24.1318 25.6463L22.4786 27.2291C22.3395 27.3623 22.1569 27.4289 21.974 27.4289ZM21.3577 26.0378L21.9741 26.628L23.5038 25.1633L22.8875 24.5732L21.3577 26.0378Z" fill="black"/>
<path d="M21.1149 14.733C19.6152 16.5388 17.4027 16.2841 16.6588 16.1349C16.5236 16.1077 16.3939 16.2054 16.3937 16.3376V16.3402V19.5027C16.3937 21.6649 18.2414 23.4342 20.4999 23.4342C22.7583 23.4342 24.6062 21.6651 24.6062 19.5027V16.0005C24.6062 15.98 24.606 15.9594 24.6055 15.939C24.6033 15.8276 24.5099 15.7357 24.3935 15.7323C22.6877 15.6845 21.7889 15.0371 21.4434 14.7131C21.3492 14.6248 21.1971 14.6341 21.1149 14.733Z" fill="#F9D0B4"/>
<path d="M16.1303 16.5066C16.2199 16.5066 16.3079 16.5138 16.3937 16.5265V16.3402C16.3937 16.3393 16.3937 16.3383 16.3937 16.3376C16.3939 16.2054 16.5236 16.1077 16.6588 16.1349C17.4027 16.2839 19.6151 16.5388 21.115 14.7329C21.1971 14.634 21.3493 14.6246 21.4436 14.7131C21.7889 15.0372 22.6877 15.6845 24.3937 15.7323C24.5101 15.7356 24.6033 15.8276 24.6057 15.939C24.6062 15.9594 24.6064 15.98 24.6064 16.0005V16.5263C24.6924 16.5136 24.7801 16.5064 24.8698 16.5064C25.332 16.5064 25.7505 16.6823 26.0588 16.967V14.0148C26.0588 12.7796 25.0034 11.7691 23.7133 11.7691C23.2758 11.7691 22.8667 11.8875 22.5152 12.0893C22.1046 11.4331 21.3565 10.9901 20.5036 10.9901H19.2993C16.9682 10.9901 15.0609 12.8163 15.0609 15.0481V16.8664C15.354 16.6416 15.7254 16.5066 16.1303 16.5066Z" fill="#754E34"/>
<path d="M24.8696 16.5066C24.7799 16.5066 24.6919 16.5138 24.6061 16.5265V19.5029C24.6061 19.5915 24.6019 19.6792 24.5957 19.7665C24.6851 19.7803 24.776 19.7893 24.8696 19.7893C25.8164 19.7893 26.5839 19.0545 26.5839 18.148C26.5839 17.2414 25.8164 16.5066 24.8696 16.5066Z" fill="#F9D0B4"/>
<path d="M16.3936 19.5029C16.3936 19.0956 16.3936 17.3365 16.3936 16.5265C16.3076 16.5138 16.2198 16.5066 16.1302 16.5066C15.1833 16.5066 14.4158 17.2416 14.4158 18.148C14.4158 19.0545 15.1833 19.7893 16.1302 19.7893C16.2235 19.7893 16.3147 19.7803 16.404 19.7665C16.3979 19.6792 16.3936 19.5915 16.3936 19.5029Z" fill="#F9D0B4"/>
<path d="M20.4999 23.8177C18.015 23.8177 15.9933 21.8821 15.9933 19.5027V16.3402C15.9935 16.1591 16.0767 15.9926 16.2215 15.8802C16.3676 15.7665 16.5567 15.7227 16.7408 15.7596C17.5162 15.9153 19.4655 16.1027 20.8014 14.4944C20.9111 14.3624 21.0744 14.2805 21.2499 14.2701C21.4228 14.2598 21.5978 14.3213 21.7237 14.4394C21.9993 14.6981 22.8126 15.3045 24.4052 15.3493C24.7351 15.3584 24.999 15.614 25.0056 15.9314C25.0062 15.9538 25.0064 15.9772 25.0064 16.0005V19.5027C25.0066 21.8821 22.9849 23.8177 20.4999 23.8177ZM16.7941 16.5487V19.5029C16.7941 21.4593 18.4565 23.0512 20.4999 23.0512C22.5434 23.0512 24.2058 21.4593 24.2058 19.5029V16.1088C22.6829 16.0295 21.7741 15.5 21.3063 15.113C19.7935 16.7947 17.6826 16.6869 16.7941 16.5487ZM21.4285 14.9715C21.4284 14.9715 21.4284 14.9716 21.4285 14.9715C21.4284 14.9716 21.4284 14.9715 21.4285 14.9715ZM21.1149 14.733H21.1165H21.1149Z" fill="black"/>
<path d="M26.0586 17.2605C25.8374 17.2605 25.6582 17.0889 25.6582 16.8771V14.0147C25.6582 12.9878 24.7857 12.1522 23.7131 12.1522C23.3667 12.1522 23.0235 12.2443 22.7209 12.4178C22.6298 12.4703 22.5206 12.4856 22.4176 12.4609C22.3146 12.4362 22.2261 12.3734 22.1714 12.2861C21.8191 11.723 21.1799 11.3733 20.5034 11.3733H19.2989C17.1826 11.3733 15.4607 13.0217 15.4607 15.0479V16.8068C15.4607 17.0185 15.2815 17.1901 15.0604 17.1901C14.8392 17.1901 14.66 17.0185 14.66 16.8068V15.0479C14.66 12.5989 16.7409 10.6066 19.2989 10.6066H20.5034C21.3345 10.6066 22.125 10.9787 22.6434 11.5965C22.982 11.4578 23.3459 11.3854 23.7131 11.3854C25.2271 11.3854 26.459 12.5647 26.459 14.0146V16.877C26.459 17.0888 26.2798 17.2605 26.0586 17.2605Z" fill="black"/>
<path d="M24.8696 20.1728C24.8059 20.1728 24.7428 20.1696 24.6805 20.1636C24.4604 20.1429 24.2995 19.9554 24.3211 19.7447C24.3429 19.5338 24.5397 19.3797 24.7586 19.4006C24.7953 19.404 24.832 19.4061 24.8695 19.4061C25.5939 19.4061 26.1834 18.8417 26.1834 18.1481C26.1834 17.4544 25.5939 16.8899 24.8695 16.8899C24.8355 16.8899 24.802 16.8913 24.7689 16.8938C24.5487 16.9103 24.3552 16.7541 24.3373 16.5431C24.3192 16.3321 24.4832 16.147 24.7036 16.1298C24.7583 16.1255 24.8137 16.1232 24.8695 16.1232C26.0356 16.1232 26.9842 17.0316 26.9842 18.1481C26.9842 19.2646 26.0357 20.1728 24.8696 20.1728Z" fill="black"/>
<path d="M16.1302 20.1728C14.9641 20.1728 14.0154 19.2646 14.0154 18.1481C14.0154 17.0316 14.9641 16.1232 16.1302 16.1232C16.186 16.1232 16.2413 16.1255 16.2961 16.1298C16.5164 16.147 16.6804 16.3321 16.6623 16.5431C16.6444 16.7541 16.4503 16.9105 16.2307 16.8938C16.1976 16.8912 16.1641 16.8899 16.1302 16.8899C15.4058 16.8899 14.8162 17.4544 14.8162 18.1481C14.8162 18.8417 15.4058 19.4061 16.1302 19.4061C16.1644 19.4061 16.1982 19.4044 16.2315 19.4015C16.453 19.3802 16.647 19.5371 16.6673 19.7477C16.6878 19.9586 16.5257 20.1454 16.3057 20.165C16.2479 20.1699 16.1894 20.1728 16.1302 20.1728Z" fill="black"/>
<path d="M22.5577 24.6435C22.4142 24.6435 22.2753 24.5694 22.2036 24.4394C22.0647 24.1885 21.9914 23.9079 21.9914 23.628V23.0684C21.9914 22.8566 22.1706 22.685 22.3918 22.685C22.6129 22.685 22.7921 22.8566 22.7921 23.0684V23.628C22.7921 23.7834 22.8333 23.9398 22.9111 24.0806C23.0146 24.2676 22.9403 24.4995 22.7447 24.5987C22.685 24.6291 22.6208 24.6435 22.5577 24.6435Z" fill="black"/>
<path d="M20.857 26.3912H20.1496C19.9284 26.3912 19.7492 26.2196 19.7492 26.0079C19.7492 25.7961 19.9284 25.6245 20.1496 25.6245H20.857C21.0782 25.6245 21.2574 25.7961 21.2574 26.0079C21.2574 26.2196 21.0782 26.3912 20.857 26.3912Z" fill="black"/>
<path d="M18.4646 24.6054C18.4057 24.6054 18.3459 24.5928 18.2892 24.5664C18.0907 24.4737 18.008 24.244 18.1051 24.0537C18.1733 23.92 18.2079 23.7767 18.2079 23.628V23.0586C18.2079 22.8469 18.3871 22.6753 18.6083 22.6753C18.8295 22.6753 19.0087 22.8469 19.0087 23.0586V23.628C19.0087 23.8907 18.9452 24.1541 18.825 24.3901C18.7553 24.5261 18.6129 24.6054 18.4646 24.6054Z" fill="black"/>
<path d="M6.04537 19.7874C5.82419 19.7874 5.64498 19.6159 5.64498 19.4041V14.1937C5.64498 13.982 5.82419 13.8104 6.04537 13.8104C6.26654 13.8104 6.44576 13.982 6.44576 14.1937V19.4041C6.44576 19.6159 6.26654 19.7874 6.04537 19.7874Z" fill="black"/>
<path d="M6.04535 19.9656C5.98048 19.9656 5.91546 19.9504 5.85652 19.9202C4.91464 19.4379 3.80684 19.3807 2.81708 19.7636C2.61048 19.8429 2.38658 19.8202 2.20144 19.7006C1.99868 19.5697 1.87776 19.3426 1.87776 19.0931V14.2728C1.87776 13.986 2.03824 13.7283 2.28648 13.6162C3.47388 13.0798 4.86323 13.0839 6.04535 13.62C7.22714 13.0839 8.61666 13.0796 9.80437 13.6163C10.0526 13.7284 10.2129 13.9862 10.2129 14.2728V19.0931C10.2129 19.3424 10.0919 19.5695 9.88926 19.7006C9.70428 19.8199 9.48006 19.8434 9.27362 19.7636C8.28369 19.3807 7.17573 19.4381 6.23401 19.9202C6.17523 19.9504 6.11021 19.9656 6.04535 19.9656ZM4.16255 18.7458C4.80734 18.7458 5.45005 18.8822 6.04535 19.1529C7.10286 18.6723 8.30964 18.6146 9.41183 18.9935L9.41215 14.2874C8.3998 13.8483 7.21609 13.8845 6.23417 14.3872C6.1163 14.4478 5.97456 14.4478 5.85668 14.3872C4.87509 13.8845 3.69169 13.848 2.6795 14.2871L2.6787 18.9937C3.16013 18.8279 3.66206 18.7458 4.16255 18.7458ZM9.46196 14.3094C9.46212 14.3094 9.46228 14.3096 9.46244 14.3096C9.46228 14.3096 9.46212 14.3094 9.46196 14.3094Z" fill="black"/>
<path d="M10.9335 21.2801H1.15737C0.756021 21.2801 0.429623 20.9676 0.429623 20.5833V14.854C0.429623 14.4697 0.756021 14.1572 1.15737 14.1572H2.17709C2.39826 14.1572 2.57748 14.3288 2.57748 14.5406C2.57748 14.7523 2.39826 14.9239 2.17709 14.9239H1.2304V20.5134H10.8603V14.9239H9.96965C9.74847 14.9239 9.56926 14.7523 9.56926 14.5406C9.56926 14.3288 9.74847 14.1572 9.96965 14.1572H10.9335C11.3347 14.1572 11.6611 14.4697 11.6611 14.854V20.5833C11.6611 20.9676 11.3345 21.2801 10.9335 21.2801Z" fill="black"/>
<path d="M7.36878 15.4812C7.17131 15.4812 6.99946 15.3415 6.97239 15.1489C6.94277 14.9391 7.09668 14.746 7.31593 14.7178C7.69214 14.6692 8.07555 14.6694 8.45528 14.7171C8.67453 14.7448 8.82892 14.9374 8.79994 15.1472C8.77095 15.3573 8.57043 15.5049 8.3507 15.4772C8.04064 15.4381 7.72833 15.4384 7.42243 15.4776C7.40434 15.4801 7.3864 15.4812 7.36878 15.4812Z" fill="black"/>
<path d="M7.36878 16.7924C7.17131 16.7924 6.99946 16.6528 6.97239 16.4602C6.94277 16.2504 7.09668 16.0573 7.31593 16.0291C7.69214 15.9805 8.07555 15.9807 8.45528 16.0283C8.67453 16.0561 8.82892 16.2487 8.79994 16.4585C8.77095 16.6684 8.57043 16.8176 8.3507 16.7885C8.04064 16.7494 7.72833 16.7495 7.42243 16.7889C7.40434 16.7914 7.3864 16.7924 7.36878 16.7924Z" fill="black"/>
<path d="M7.36878 18.1036C7.17131 18.1036 6.99946 17.9639 6.97239 17.7713C6.94277 17.5615 7.09668 17.3685 7.31593 17.3403C7.69214 17.2918 8.07555 17.2917 8.45528 17.3395C8.67453 17.3673 8.82892 17.5599 8.79994 17.7696C8.77095 17.9795 8.57043 18.1281 8.3507 18.0996C8.04064 18.0607 7.72833 18.0608 7.42243 18.1001C7.40434 18.1025 7.3864 18.1036 7.36878 18.1036Z" fill="black"/>
<path d="M4.63738 15.4811C4.61976 15.4811 4.60166 15.4801 4.58356 15.4778C4.27734 15.4382 3.96504 15.4382 3.6553 15.4773C3.43652 15.5052 3.23505 15.3574 3.20606 15.1473C3.17707 14.9375 3.33146 14.7449 3.55071 14.7172C3.93077 14.6693 4.31418 14.6692 4.69007 14.7179C4.90932 14.7462 5.06307 14.9391 5.0336 15.149C5.0067 15.3414 4.83469 15.4811 4.63738 15.4811Z" fill="black"/>
<path d="M4.63738 16.7924C4.61976 16.7924 4.60166 16.7913 4.58356 16.789C4.27734 16.7496 3.96504 16.7495 3.6553 16.7886C3.43652 16.8177 3.23505 16.6685 3.20606 16.4586C3.17707 16.2488 3.33146 16.0562 3.55071 16.0285C3.93077 15.9806 4.31418 15.9805 4.69007 16.0292C4.90932 16.0574 5.06307 16.2503 5.0336 16.4603C5.0067 16.6527 4.83469 16.7924 4.63738 16.7924Z" fill="black"/>
<path d="M4.63738 18.1036C4.61976 18.1036 4.60166 18.1025 4.58356 18.1002C4.27734 18.0608 3.96504 18.0607 3.6553 18.0998C3.43652 18.1283 3.23505 17.9797 3.20606 17.7698C3.17707 17.56 3.33146 17.3674 3.55071 17.3397C3.93077 17.2917 4.31418 17.2918 4.69007 17.3404C4.90932 17.3687 5.06307 17.5616 5.0336 17.7715C5.0067 17.9638 4.83469 18.1036 4.63738 18.1036Z" fill="black"/>
<path d="M10.8906 7.36037C8.72691 7.36037 6.9668 5.64065 6.9668 3.52684C6.9668 3.36368 6.97737 3.19946 6.99851 3.03921C7.05344 2.61799 7.42965 2.30011 7.87344 2.30011H13.9078C14.3516 2.30011 14.7276 2.61783 14.7827 3.03921C14.8039 3.19946 14.8145 3.36368 14.8145 3.52684C14.8145 5.64065 13.0543 7.36037 10.8906 7.36037ZM7.87344 3.06682C7.8326 3.06682 7.79817 3.09595 7.79304 3.13459C7.77623 3.26371 7.76758 3.39558 7.76758 3.52684C7.76758 5.21788 9.16863 6.59366 10.8906 6.59366C12.6126 6.59366 14.0137 5.21788 14.0137 3.52684C14.0137 3.39558 14.005 3.26371 13.9882 3.13505C13.9882 3.1349 13.9882 3.13475 13.9882 3.13459C13.9831 3.09595 13.9486 3.06682 13.9078 3.06682H7.87344Z" fill="black"/>
<path d="M12.611 8.89381H9.17023C8.26438 8.89381 7.52734 8.18813 7.52734 7.32083C7.52734 6.91985 7.868 6.59369 8.2868 6.59369H13.4944C13.9133 6.59369 14.2539 6.91985 14.2539 7.32083C14.2539 8.18813 13.5169 8.89381 12.611 8.89381ZM8.32909 7.36039C8.35071 7.78668 8.71971 8.1271 9.17023 8.1271H12.611C13.0615 8.1271 13.4305 7.78668 13.4522 7.36039H8.32909ZM13.4944 7.36039H13.496H13.4944Z" fill="black"/>
<path d="M9.28906 1.53341C9.06789 1.53341 8.88867 1.36182 8.88867 1.15006V0.383353C8.88867 0.171589 9.06789 0 9.28906 0C9.51024 0 9.68945 0.171589 9.68945 0.383353V1.15006C9.68945 1.36182 9.51024 1.53341 9.28906 1.53341Z" fill="black"/>
<path d="M10.8906 1.53341C10.6694 1.53341 10.4902 1.36182 10.4902 1.15006V0.383353C10.4902 0.171589 10.6694 0 10.8906 0C11.1118 0 11.291 0.171589 11.291 0.383353V1.15006C11.291 1.36182 11.1118 1.53341 10.8906 1.53341Z" fill="black"/>
<path d="M12.4922 1.53341C12.271 1.53341 12.0918 1.36182 12.0918 1.15006V0.383353C12.0918 0.171589 12.271 0 12.4922 0C12.7134 0 12.8926 0.171589 12.8926 0.383353V1.15006C12.8926 1.36182 12.7134 1.53341 12.4922 1.53341Z" fill="black"/>
<path d="M14.5801 6.28696H13.4932C13.272 6.28696 13.0928 6.11537 13.0928 5.9036C13.0928 5.69184 13.272 5.52025 13.4932 5.52025H14.5801C15.2214 5.52025 15.7957 5.13122 16.0091 4.55221C16.0839 4.34934 16.0525 4.13221 15.9226 3.95648C15.7927 3.78075 15.5894 3.68016 15.3647 3.68016H14.4541C14.2329 3.68016 14.0537 3.50857 14.0537 3.2968C14.0537 3.08504 14.2329 2.91345 14.4541 2.91345H15.3647C15.8457 2.91345 16.2986 3.13794 16.5763 3.51378C16.854 3.88962 16.9244 4.37326 16.7642 4.80752C16.4381 5.6923 15.5603 6.28696 14.5801 6.28696Z" fill="black"/>
<path d="M32.5964 16.5515C32.5058 16.5515 32.4166 16.5219 32.3448 16.4662C32.2506 16.3934 32.196 16.2839 32.196 16.1681V14.3681C32.196 14.1873 32.3278 14.0312 32.5126 13.9933L37.2986 13.0113C37.4158 12.9872 37.5401 13.0153 37.6341 13.088C37.7283 13.1608 37.7829 13.2703 37.7829 13.3861V15.1863C37.7829 15.3671 37.6511 15.5232 37.4663 15.5611L32.6803 16.5429C32.6525 16.5487 32.6244 16.5515 32.5964 16.5515ZM32.9968 14.678V15.694L36.982 14.8764V13.8604L32.9968 14.678ZM37.3824 15.1863H37.384H37.3824Z" fill="black"/>
<path d="M37.3823 19.6611C37.1611 19.6611 36.9819 19.4895 36.9819 19.2777V15.1863C36.9819 14.9745 37.1611 14.8029 37.3823 14.8029C37.6035 14.8029 37.7827 14.9745 37.7827 15.1863V19.2777C37.7827 19.4895 37.6035 19.6611 37.3823 19.6611Z" fill="black"/>
<path d="M36.1857 20.8066C35.3052 20.8066 34.5888 20.1207 34.5888 19.2776C34.5888 18.4345 35.3052 17.7485 36.1857 17.7485C37.0662 17.7485 37.7826 18.4345 37.7826 19.2776C37.7826 20.1207 37.0662 20.8066 36.1857 20.8066ZM36.1857 18.5153C35.7467 18.5153 35.3896 18.8573 35.3896 19.2777C35.3896 19.6982 35.7466 20.04 36.1857 20.04C36.6249 20.04 36.9818 19.6982 36.9818 19.2777C36.9818 18.8573 36.6249 18.5153 36.1857 18.5153Z" fill="black"/>
<path d="M32.5964 20.6429C32.3752 20.6429 32.196 20.4713 32.196 20.2596V16.1681C32.196 15.9564 32.3752 15.7848 32.5964 15.7848C32.8176 15.7848 32.9968 15.9564 32.9968 16.1681V20.2596C32.9968 20.4713 32.8176 20.6429 32.5964 20.6429Z" fill="black"/>
<path d="M31.4 21.7885C30.5194 21.7885 29.8031 21.1026 29.8031 20.2596C29.8031 19.4165 30.5194 18.7306 31.4 18.7306C32.2805 18.7306 32.9969 19.4165 32.9969 20.2596C32.9969 21.1026 32.2805 21.7885 31.4 21.7885ZM31.4 19.4973C30.961 19.4973 30.6038 19.8391 30.6038 20.2596C30.6038 20.68 30.9608 21.0218 31.4 21.0218C31.8391 21.0218 32.1961 20.68 32.1961 20.2596C32.1961 19.8391 31.839 19.4973 31.4 19.4973Z" fill="black"/>
<path d="M29.5426 6.40919C29.4401 6.40919 29.3378 6.37177 29.2594 6.29694C29.103 6.14713 29.103 5.90454 29.2594 5.75488L30.3892 4.67321C30.5457 4.5234 30.799 4.5234 30.9553 4.67321C31.1117 4.82303 31.1118 5.06561 30.9553 5.21527L29.8256 6.29694C29.7474 6.37177 29.6451 6.40919 29.5426 6.40919Z" fill="black"/>
<path d="M28.354 4.99935C28.2515 4.99935 28.1492 4.96194 28.0709 4.88711C27.9144 4.73729 27.9144 4.49471 28.0709 4.34505L29.0619 3.39617C29.2184 3.24636 29.4717 3.24636 29.6281 3.39617C29.7844 3.54599 29.7845 3.78857 29.6281 3.93823L28.637 4.88711C28.5589 4.96179 28.4565 4.99935 28.354 4.99935Z" fill="black"/>
<path d="M30.7231 5.27894C30.6176 5.27894 30.5156 5.23892 30.44 5.1667L29.1092 3.89259C29.0341 3.82067 28.992 3.7233 28.992 3.62148C28.992 3.57348 29.0024 2.43355 29.9078 1.56702C30.4148 1.08138 31.1038 1.10224 31.657 1.11865C31.9911 1.12861 32.3071 1.13827 32.5331 1.04918C32.7707 0.955185 33.0419 0.976346 33.2582 1.10561C33.4708 1.23258 33.6019 1.4425 33.6181 1.68171C33.7639 3.85042 32.8047 5.05982 30.7673 5.27649C30.7526 5.27817 30.7379 5.27894 30.7231 5.27894ZM29.8045 3.47366L30.8665 4.49062C32.7217 4.2123 32.8931 2.89756 32.8209 1.75961C32.4445 1.90943 32.0318 1.89685 31.6319 1.88489C31.1519 1.87032 30.7363 1.8579 30.4741 2.10892C29.968 2.59348 29.8379 3.19887 29.8045 3.47366Z" fill="black"/>
<path d="M25.4287 9.70615C25.158 9.70615 24.8877 9.60633 24.6801 9.40744C24.2732 9.0178 24.2631 8.398 24.6569 7.9964L26.7445 5.86818C26.8961 5.71376 27.1493 5.70625 27.3105 5.85131C27.4717 5.99622 27.4797 6.2388 27.3282 6.39322L25.2408 8.52113C25.1447 8.61912 25.1473 8.77016 25.2464 8.86523C25.3459 8.95999 25.5035 8.96245 25.6058 8.87044L27.9215 6.78776C28.0828 6.64286 28.3363 6.65052 28.4875 6.80463C28.6389 6.95904 28.631 7.20163 28.4699 7.34654L26.154 9.42922C25.9486 9.61399 25.6883 9.706 25.4287 9.70615Z" fill="black"/>
<path d="M27.2037 6.48128C27.0278 6.48128 26.8627 6.4158 26.7386 6.29681L25.609 5.21514C25.4525 5.06533 25.4525 4.82274 25.609 4.67308C25.7654 4.52342 26.0188 4.52327 26.1751 4.67308L27.2037 5.65784L27.9679 4.92609L26.9617 3.96265C26.8052 3.81299 26.8052 3.57025 26.9617 3.42059C27.1181 3.27093 27.3715 3.27078 27.5278 3.42059L28.6354 4.48095C28.8919 4.72644 28.8919 5.12574 28.6354 5.37124L27.6684 6.29712C27.5443 6.4158 27.3792 6.48128 27.2037 6.48128ZM28.0695 5.02285H28.0711H28.0695Z" fill="black"/>
<path d="M25.8414 5.27889C25.8267 5.27889 25.812 5.27812 25.7972 5.27643C23.7597 5.05976 22.8005 3.85021 22.9463 1.68181C22.9625 1.44245 23.0936 1.23252 23.3062 1.10556C23.5227 0.976444 23.7938 0.955436 24.0313 1.04913C24.2573 1.13822 24.5728 1.12871 24.9074 1.11859C25.4612 1.10218 26.1496 1.08133 26.6568 1.56696C27.5618 2.43349 27.5724 3.57343 27.5724 3.62142C27.5724 3.72309 27.5301 3.82061 27.4552 3.89253L26.1246 5.16664C26.049 5.23887 25.947 5.27889 25.8414 5.27889ZM23.7432 1.76462C23.6718 2.90118 23.8452 4.21255 25.6981 4.49056L26.759 3.47468C26.7237 3.19897 26.5908 2.58821 26.0905 2.10902C25.8283 1.858 25.4125 1.87058 24.9325 1.88499C24.5342 1.89664 24.1231 1.90906 23.7432 1.76462Z" fill="black"/>
<path d="M31.1355 9.70606C30.8757 9.70606 30.6158 9.61405 30.4105 9.42943L27.0523 6.40968C26.8912 6.26477 26.8832 6.02219 27.0347 5.86777C27.1862 5.71336 27.4394 5.70585 27.6007 5.85091L30.9587 8.87065C31.061 8.96266 31.2188 8.96036 31.3181 8.86529C31.4172 8.77052 31.4196 8.61933 31.3235 8.52119L28.184 5.32096C28.0326 5.16655 28.0405 4.92396 28.2016 4.77905C28.3627 4.63445 28.6162 4.64166 28.7676 4.79592L31.9071 7.9963C32.3011 8.3979 32.2909 9.01771 31.8842 9.4075C31.6765 9.60623 31.4063 9.70606 31.1355 9.70606Z" fill="black"/>
<path d="M6.11666 6.87733C5.39596 6.75466 4.83541 6.21797 4.69127 5.54326C4.69127 5.5126 4.62721 5.5126 4.62721 5.54326C4.48307 6.21797 3.92252 6.75466 3.20182 6.87733C3.16978 6.87733 3.16978 6.92333 3.20182 6.93867C3.92252 7.06134 4.48307 7.59804 4.62721 8.27274C4.62721 8.3034 4.69127 8.3034 4.69127 8.27274C4.83541 7.59804 5.39596 7.06134 6.11666 6.93867C6.14869 6.92333 6.14869 6.87733 6.11666 6.87733Z" fill="#F5C84C"/>
<path d="M30.59 13.043C30.0842 12.957 29.6911 12.5804 29.5898 12.107C29.5898 12.0856 29.5448 12.0856 29.5448 12.107C29.4438 12.5804 29.0504 12.957 28.5447 13.043C28.5222 13.043 28.5222 13.0752 28.5447 13.0861C29.0504 13.1721 29.4436 13.5488 29.5448 14.0221C29.5448 14.0436 29.5898 14.0436 29.5898 14.0221C29.6909 13.5488 30.0842 13.1721 30.59 13.0861C30.6126 13.0752 30.6126 13.043 30.59 13.043Z" fill="#70D6F9"/>
<path d="M33.0069 26.1215H32.6385V25.7688C32.6385 25.5081 32.4143 25.2781 32.126 25.2781C31.8377 25.2781 31.6135 25.4928 31.6135 25.7688V26.1215H31.2451C30.9729 26.1215 30.7326 26.3362 30.7326 26.6122C30.7326 26.8882 30.9569 27.1029 31.2451 27.1029H31.6135V27.4556C31.6135 27.7163 31.8377 27.9463 32.126 27.9463C32.4143 27.9463 32.6385 27.7316 32.6385 27.4556V27.1029H33.0069C33.2791 27.1029 33.5194 26.8882 33.5194 26.6122C33.5194 26.3362 33.2951 26.1215 33.0069 26.1215Z" fill="#87D147"/>
<path d="M6.59716 11.4468C6.8979 11.4468 7.14169 11.2134 7.14169 10.9254C7.14169 10.6375 6.8979 10.4041 6.59716 10.4041C6.29642 10.4041 6.05263 10.6375 6.05263 10.9254C6.05263 11.2134 6.29642 11.4468 6.59716 11.4468Z" fill="#FC657E"/>
<path d="M34.144 23.5607C34.4448 23.5607 34.6886 23.3273 34.6886 23.0394C34.6886 22.7514 34.4448 22.518 34.144 22.518C33.8433 22.518 33.5995 22.7514 33.5995 23.0394C33.5995 23.3273 33.8433 23.5607 34.144 23.5607Z" fill="#F5C84C"/>
<path d="M20.562 21.3921C19.9482 21.3921 19.3707 21.1511 19.0172 20.7473C18.8752 20.585 18.8975 20.3431 19.0669 20.2073C19.2363 20.0711 19.4891 20.0923 19.631 20.2548C19.8342 20.4871 20.1821 20.6256 20.562 20.6256C20.9418 20.6256 21.2897 20.487 21.4931 20.2548C21.6353 20.0924 21.8879 20.0714 22.057 20.2074C22.2265 20.3434 22.2486 20.5853 22.1065 20.7473C21.7529 21.1511 21.1755 21.3921 20.562 21.3921Z" fill="black"/>
<path d="M22.1373 18.7453C22.4592 18.7453 22.7202 18.4954 22.7202 18.1871C22.7202 17.8789 22.4592 17.629 22.1373 17.629C21.8153 17.629 21.5543 17.8789 21.5543 18.1871C21.5543 18.4954 21.8153 18.7453 22.1373 18.7453Z" fill="black"/>
<path d="M18.8626 18.7453C19.1845 18.7453 19.4455 18.4954 19.4455 18.1871C19.4455 17.8789 19.1845 17.629 18.8626 17.629C18.5406 17.629 18.2796 17.8789 18.2796 18.1871C18.2796 18.4954 18.5406 18.7453 18.8626 18.7453Z" fill="black"/>
</svg>
