<svg width="36" height="33" viewBox="0 0 36 33" fill="none" xmlns="http://www.w3.org/2000/svg">
<g clip-path="url(#clip0)">
<path d="M6.48709 8.9167H3.02054C3.02054 8.9167 2.21631 11.5735 2.21631 18.3845C2.21631 25.1956 3.02054 27.8524 3.02054 27.8524H6.48709C6.48709 27.8524 7.29132 25.1956 7.29132 18.3845C7.29132 11.5735 6.48709 8.9167 6.48709 8.9167Z" fill="#FFD3A1"/>
<path d="M15.318 8.9167H11.8514C11.8514 8.9167 11.0472 11.5735 11.0472 18.3845C11.0472 25.1956 11.8514 27.8524 11.8514 27.8524H15.318C15.318 27.8524 16.1222 25.1956 16.1222 18.3845C16.1222 11.5735 15.318 8.9167 15.318 8.9167Z" fill="#FFD3A1"/>
<path d="M24.1487 8.9167H20.6822C20.6822 8.9167 19.8779 11.5735 19.8779 18.3845C19.8779 25.1956 20.6822 27.8524 20.6822 27.8524H24.1487C24.1487 27.8524 24.9529 25.1956 24.9529 18.3845C24.9529 11.5735 24.1487 8.9167 24.1487 8.9167Z" fill="#FEB158"/>
<path d="M32.9796 8.9167H29.513C29.513 8.9167 28.7088 11.5735 28.7088 18.3845C28.7088 25.1956 29.513 27.8524 29.513 27.8524H32.9796C32.9796 27.8524 33.7838 25.1956 33.7838 18.3845C33.7838 11.5735 32.9796 8.9167 32.9796 8.9167Z" fill="#FEB158"/>
<path d="M34.7293 30.0921V27.185H18L16.5927 31.3822L34.7293 30.0921Z" fill="#D24B1D"/>
<path d="M1.27069 30.0921L17.9999 31.3822V27.185H1.27069V30.0921Z" fill="#FE8944"/>
<path d="M18 0.00134277L16.5927 7.96762L36 6.67753V4.8651L18 0.00134277Z" fill="#FEB158"/>
<path d="M18 0.00106812L0 4.86483V6.67725L18 7.96735V0.00106812Z" fill="#FFD3A1"/>
<path d="M18 9.58404H36V6.67688H18L16.5927 8.13043L18 9.58404Z" fill="#D24B1D"/>
<path d="M18 6.67665H0V9.58349H18V6.67665Z" fill="#FE8944"/>
<path d="M18 32.9993H36V30.0921H34.7293H18L16.5927 31.5816L18 32.9993Z" fill="#FEB158"/>
<path d="M1.27076 30.0921H0V32.9993H18V30.0921H1.27076Z" fill="#FFD3A1"/>
</g>
<defs>
<clipPath id="clip0">
<rect width="36" height="33" fill="white"/>
</clipPath>
</defs>
</svg>
