<svg width="410" height="82" viewBox="0 0 410 82" fill="none" xmlns="http://www.w3.org/2000/svg">
<rect x="93" width="317" height="2" fill="#641924"/>
<rect x="93" y="76" width="317" height="2" fill="#641924"/>
<path d="M195.021 18C196.261 18 197.334 18.2067 198.241 18.62C199.161 19.0333 199.867 19.62 200.361 20.38C200.854 21.14 201.101 22.04 201.101 23.08C201.101 24.1067 200.854 25.0067 200.361 25.78C199.867 26.54 199.161 27.1267 198.241 27.54C197.334 27.94 196.261 28.14 195.021 28.14H192.201V32H188.961V18H195.021ZM194.841 25.5C195.814 25.5 196.554 25.2933 197.061 24.88C197.567 24.4533 197.821 23.8533 197.821 23.08C197.821 22.2933 197.567 21.6933 197.061 21.28C196.554 20.8533 195.814 20.64 194.841 20.64H192.201V25.5H194.841ZM211.931 29H205.431L204.191 32H200.871L207.111 18H210.311L216.571 32H213.171L211.931 29ZM210.911 26.54L208.691 21.18L206.471 26.54H210.911ZM218.023 18H221.263V32H218.023V18ZM224.586 18H230.946C232.466 18 233.806 18.2933 234.966 18.88C236.139 19.4533 237.046 20.2667 237.686 21.32C238.339 22.3733 238.666 23.6 238.666 25C238.666 26.4 238.339 27.6267 237.686 28.68C237.046 29.7333 236.139 30.5533 234.966 31.14C233.806 31.7133 232.466 32 230.946 32H224.586V18ZM230.786 29.34C232.186 29.34 233.299 28.9533 234.126 28.18C234.966 27.3933 235.386 26.3333 235.386 25C235.386 23.6667 234.966 22.6133 234.126 21.84C233.299 21.0533 232.186 20.66 230.786 20.66H227.826V29.34H230.786ZM251.949 29.4V32H241.109V18H251.689V20.6H244.329V23.64H250.829V26.16H244.329V29.4H251.949ZM260.747 32.24C258.747 32.24 257.187 31.6867 256.067 30.58C254.961 29.4733 254.407 27.8933 254.407 25.84V18H257.647V25.72C257.647 28.2267 258.687 29.48 260.767 29.48C261.781 29.48 262.554 29.18 263.087 28.58C263.621 27.9667 263.887 27.0133 263.887 25.72V18H267.087V25.84C267.087 27.8933 266.527 29.4733 265.407 30.58C264.301 31.6867 262.747 32.24 260.747 32.24ZM274.889 32.24C273.782 32.24 272.709 32.0933 271.669 31.8C270.642 31.4933 269.816 31.1 269.189 30.62L270.289 28.18C270.889 28.62 271.602 28.9733 272.429 29.24C273.256 29.5067 274.082 29.64 274.909 29.64C275.829 29.64 276.509 29.5067 276.949 29.24C277.389 28.96 277.609 28.5933 277.609 28.14C277.609 27.8067 277.476 27.5333 277.209 27.32C276.956 27.0933 276.622 26.9133 276.209 26.78C275.809 26.6467 275.262 26.5 274.569 26.34C273.502 26.0867 272.629 25.8333 271.949 25.58C271.269 25.3267 270.682 24.92 270.189 24.36C269.709 23.8 269.469 23.0533 269.469 22.12C269.469 21.3067 269.689 20.5733 270.129 19.92C270.569 19.2533 271.229 18.7267 272.109 18.34C273.002 17.9533 274.089 17.76 275.369 17.76C276.262 17.76 277.136 17.8667 277.989 18.08C278.842 18.2933 279.589 18.6 280.229 19L279.229 21.46C277.936 20.7267 276.642 20.36 275.349 20.36C274.442 20.36 273.769 20.5067 273.329 20.8C272.902 21.0933 272.689 21.48 272.689 21.96C272.689 22.44 272.936 22.8 273.429 23.04C273.936 23.2667 274.702 23.4933 275.729 23.72C276.796 23.9733 277.669 24.2267 278.349 24.48C279.029 24.7333 279.609 25.1333 280.089 25.68C280.582 26.2267 280.829 26.9667 280.829 27.9C280.829 28.7 280.602 29.4333 280.149 30.1C279.709 30.7533 279.042 31.2733 278.149 31.66C277.256 32.0467 276.169 32.24 274.889 32.24ZM283.043 18H286.283V32H283.043V18ZM294.205 32.24C293.099 32.24 292.025 32.0933 290.985 31.8C289.959 31.4933 289.132 31.1 288.505 30.62L289.605 28.18C290.205 28.62 290.919 28.9733 291.745 29.24C292.572 29.5067 293.399 29.64 294.225 29.64C295.145 29.64 295.825 29.5067 296.265 29.24C296.705 28.96 296.925 28.5933 296.925 28.14C296.925 27.8067 296.792 27.5333 296.525 27.32C296.272 27.0933 295.939 26.9133 295.525 26.78C295.125 26.6467 294.579 26.5 293.885 26.34C292.819 26.0867 291.945 25.8333 291.265 25.58C290.585 25.3267 289.999 24.92 289.505 24.36C289.025 23.8 288.785 23.0533 288.785 22.12C288.785 21.3067 289.005 20.5733 289.445 19.92C289.885 19.2533 290.545 18.7267 291.425 18.34C292.319 17.9533 293.405 17.76 294.685 17.76C295.579 17.76 296.452 17.8667 297.305 18.08C298.159 18.2933 298.905 18.6 299.545 19L298.545 21.46C297.252 20.7267 295.959 20.36 294.665 20.36C293.759 20.36 293.085 20.5067 292.645 20.8C292.219 21.0933 292.005 21.48 292.005 21.96C292.005 22.44 292.252 22.8 292.745 23.04C293.252 23.2667 294.019 23.4933 295.045 23.72C296.112 23.9733 296.985 24.2267 297.665 24.48C298.345 24.7333 298.925 25.1333 299.405 25.68C299.899 26.2267 300.145 26.9667 300.145 27.9C300.145 28.7 299.919 29.4333 299.465 30.1C299.025 30.7533 298.359 31.2733 297.465 31.66C296.572 32.0467 295.485 32.24 294.205 32.24Z" fill="#641924"/>
<path d="M118.578 45.5H121.008V56H118.578V45.5ZM128.239 47.81C129.239 47.81 130.044 48.11 130.654 48.71C131.274 49.31 131.584 50.2 131.584 51.38V56H129.244V51.74C129.244 51.1 129.104 50.625 128.824 50.315C128.544 49.995 128.139 49.835 127.609 49.835C127.019 49.835 126.549 50.02 126.199 50.39C125.849 50.75 125.674 51.29 125.674 52.01V56H123.334V47.93H125.569V48.875C125.879 48.535 126.264 48.275 126.724 48.095C127.184 47.905 127.689 47.81 128.239 47.81ZM138.91 55.61C138.68 55.78 138.395 55.91 138.055 56C137.725 56.08 137.375 56.12 137.005 56.12C136.045 56.12 135.3 55.875 134.77 55.385C134.25 54.895 133.99 54.175 133.99 53.225V49.91H132.745V48.11H133.99V46.145H136.33V48.11H138.34V49.91H136.33V53.195C136.33 53.535 136.415 53.8 136.585 53.99C136.765 54.17 137.015 54.26 137.335 54.26C137.705 54.26 138.02 54.16 138.28 53.96L138.91 55.61ZM147.88 51.995C147.88 52.025 147.865 52.235 147.835 52.625H141.73C141.84 53.125 142.1 53.52 142.51 53.81C142.92 54.1 143.43 54.245 144.04 54.245C144.46 54.245 144.83 54.185 145.15 54.065C145.48 53.935 145.785 53.735 146.065 53.465L147.31 54.815C146.55 55.685 145.44 56.12 143.98 56.12C143.07 56.12 142.265 55.945 141.565 55.595C140.865 55.235 140.325 54.74 139.945 54.11C139.565 53.48 139.375 52.765 139.375 51.965C139.375 51.175 139.56 50.465 139.93 49.835C140.31 49.195 140.825 48.7 141.475 48.35C142.135 47.99 142.87 47.81 143.68 47.81C144.47 47.81 145.185 47.98 145.825 48.32C146.465 48.66 146.965 49.15 147.325 49.79C147.695 50.42 147.88 51.155 147.88 51.995ZM143.695 49.58C143.165 49.58 142.72 49.73 142.36 50.03C142 50.33 141.78 50.74 141.7 51.26H145.675C145.595 50.75 145.375 50.345 145.015 50.045C144.655 49.735 144.215 49.58 143.695 49.58ZM151.673 48.995C151.953 48.605 152.328 48.31 152.798 48.11C153.278 47.91 153.828 47.81 154.448 47.81V49.97C154.188 49.95 154.013 49.94 153.923 49.94C153.253 49.94 152.728 50.13 152.348 50.51C151.968 50.88 151.778 51.44 151.778 52.19V56H149.438V47.93H151.673V48.995ZM160.744 47.81C161.744 47.81 162.549 48.11 163.159 48.71C163.779 49.31 164.089 50.2 164.089 51.38V56H161.749V51.74C161.749 51.1 161.609 50.625 161.329 50.315C161.049 49.995 160.644 49.835 160.114 49.835C159.524 49.835 159.054 50.02 158.704 50.39C158.354 50.75 158.179 51.29 158.179 52.01V56H155.839V47.93H158.074V48.875C158.384 48.535 158.769 48.275 159.229 48.095C159.689 47.905 160.194 47.81 160.744 47.81ZM169.465 47.81C170.715 47.81 171.675 48.11 172.345 48.71C173.015 49.3 173.35 50.195 173.35 51.395V56H171.16V54.995C170.72 55.745 169.9 56.12 168.7 56.12C168.08 56.12 167.54 56.015 167.08 55.805C166.63 55.595 166.285 55.305 166.045 54.935C165.805 54.565 165.685 54.145 165.685 53.675C165.685 52.925 165.965 52.335 166.525 51.905C167.095 51.475 167.97 51.26 169.15 51.26H171.01C171.01 50.75 170.855 50.36 170.545 50.09C170.235 49.81 169.77 49.67 169.15 49.67C168.72 49.67 168.295 49.74 167.875 49.88C167.465 50.01 167.115 50.19 166.825 50.42L165.985 48.785C166.425 48.475 166.95 48.235 167.56 48.065C168.18 47.895 168.815 47.81 169.465 47.81ZM169.285 54.545C169.685 54.545 170.04 54.455 170.35 54.275C170.66 54.085 170.88 53.81 171.01 53.45V52.625H169.405C168.445 52.625 167.965 52.94 167.965 53.57C167.965 53.87 168.08 54.11 168.31 54.29C168.55 54.46 168.875 54.545 169.285 54.545ZM180.673 55.61C180.443 55.78 180.158 55.91 179.818 56C179.488 56.08 179.138 56.12 178.768 56.12C177.808 56.12 177.063 55.875 176.533 55.385C176.013 54.895 175.753 54.175 175.753 53.225V49.91H174.508V48.11H175.753V46.145H178.093V48.11H180.103V49.91H178.093V53.195C178.093 53.535 178.178 53.8 178.348 53.99C178.528 54.17 178.778 54.26 179.098 54.26C179.468 54.26 179.783 54.16 180.043 53.96L180.673 55.61ZM181.987 47.93H184.327V56H181.987V47.93ZM183.157 46.805C182.727 46.805 182.377 46.68 182.107 46.43C181.837 46.18 181.702 45.87 181.702 45.5C181.702 45.13 181.837 44.82 182.107 44.57C182.377 44.32 182.727 44.195 183.157 44.195C183.587 44.195 183.937 44.315 184.207 44.555C184.477 44.795 184.612 45.095 184.612 45.455C184.612 45.845 184.477 46.17 184.207 46.43C183.937 46.68 183.587 46.805 183.157 46.805ZM190.338 56.12C189.488 56.12 188.723 55.945 188.043 55.595C187.373 55.235 186.848 54.74 186.468 54.11C186.088 53.48 185.898 52.765 185.898 51.965C185.898 51.165 186.088 50.45 186.468 49.82C186.848 49.19 187.373 48.7 188.043 48.35C188.723 47.99 189.488 47.81 190.338 47.81C191.188 47.81 191.948 47.99 192.618 48.35C193.288 48.7 193.813 49.19 194.193 49.82C194.573 50.45 194.763 51.165 194.763 51.965C194.763 52.765 194.573 53.48 194.193 54.11C193.813 54.74 193.288 55.235 192.618 55.595C191.948 55.945 191.188 56.12 190.338 56.12ZM190.338 54.2C190.938 54.2 191.428 54 191.808 53.6C192.198 53.19 192.393 52.645 192.393 51.965C192.393 51.285 192.198 50.745 191.808 50.345C191.428 49.935 190.938 49.73 190.338 49.73C189.738 49.73 189.243 49.935 188.853 50.345C188.463 50.745 188.268 51.285 188.268 51.965C188.268 52.645 188.463 53.19 188.853 53.6C189.243 54 189.738 54.2 190.338 54.2ZM201.233 47.81C202.233 47.81 203.038 48.11 203.648 48.71C204.268 49.31 204.578 50.2 204.578 51.38V56H202.238V51.74C202.238 51.1 202.098 50.625 201.818 50.315C201.538 49.995 201.133 49.835 200.603 49.835C200.013 49.835 199.543 50.02 199.193 50.39C198.843 50.75 198.668 51.29 198.668 52.01V56H196.328V47.93H198.563V48.875C198.873 48.535 199.258 48.275 199.718 48.095C200.178 47.905 200.683 47.81 201.233 47.81ZM209.954 47.81C211.204 47.81 212.164 48.11 212.834 48.71C213.504 49.3 213.839 50.195 213.839 51.395V56H211.649V54.995C211.209 55.745 210.389 56.12 209.189 56.12C208.569 56.12 208.029 56.015 207.569 55.805C207.119 55.595 206.774 55.305 206.534 54.935C206.294 54.565 206.174 54.145 206.174 53.675C206.174 52.925 206.454 52.335 207.014 51.905C207.584 51.475 208.459 51.26 209.639 51.26H211.499C211.499 50.75 211.344 50.36 211.034 50.09C210.724 49.81 210.259 49.67 209.639 49.67C209.209 49.67 208.784 49.74 208.364 49.88C207.954 50.01 207.604 50.19 207.314 50.42L206.474 48.785C206.914 48.475 207.439 48.235 208.049 48.065C208.669 47.895 209.304 47.81 209.954 47.81ZM209.774 54.545C210.174 54.545 210.529 54.455 210.839 54.275C211.149 54.085 211.369 53.81 211.499 53.45V52.625H209.894C208.934 52.625 208.454 52.94 208.454 53.57C208.454 53.87 208.569 54.11 208.799 54.29C209.039 54.46 209.364 54.545 209.774 54.545ZM215.956 44.87H218.296V56H215.956V44.87ZM229.906 56.18C228.836 56.18 227.866 55.95 226.996 55.49C226.136 55.02 225.456 54.375 224.956 53.555C224.466 52.725 224.221 51.79 224.221 50.75C224.221 49.71 224.466 48.78 224.956 47.96C225.456 47.13 226.136 46.485 226.996 46.025C227.866 45.555 228.841 45.32 229.921 45.32C230.831 45.32 231.651 45.48 232.381 45.8C233.121 46.12 233.741 46.58 234.241 47.18L232.681 48.62C231.971 47.8 231.091 47.39 230.041 47.39C229.391 47.39 228.811 47.535 228.301 47.825C227.791 48.105 227.391 48.5 227.101 49.01C226.821 49.52 226.681 50.1 226.681 50.75C226.681 51.4 226.821 51.98 227.101 52.49C227.391 53 227.791 53.4 228.301 53.69C228.811 53.97 229.391 54.11 230.041 54.11C231.091 54.11 231.971 53.695 232.681 52.865L234.241 54.305C233.741 54.915 233.121 55.38 232.381 55.7C231.641 56.02 230.816 56.18 229.906 56.18ZM243.344 51.995C243.344 52.025 243.329 52.235 243.299 52.625H237.194C237.304 53.125 237.564 53.52 237.974 53.81C238.384 54.1 238.894 54.245 239.504 54.245C239.924 54.245 240.294 54.185 240.614 54.065C240.944 53.935 241.249 53.735 241.529 53.465L242.774 54.815C242.014 55.685 240.904 56.12 239.444 56.12C238.534 56.12 237.729 55.945 237.029 55.595C236.329 55.235 235.789 54.74 235.409 54.11C235.029 53.48 234.839 52.765 234.839 51.965C234.839 51.175 235.024 50.465 235.394 49.835C235.774 49.195 236.289 48.7 236.939 48.35C237.599 47.99 238.334 47.81 239.144 47.81C239.934 47.81 240.649 47.98 241.289 48.32C241.929 48.66 242.429 49.15 242.789 49.79C243.159 50.42 243.344 51.155 243.344 51.995ZM239.159 49.58C238.629 49.58 238.184 49.73 237.824 50.03C237.464 50.33 237.244 50.74 237.164 51.26H241.139C241.059 50.75 240.839 50.345 240.479 50.045C240.119 49.735 239.679 49.58 239.159 49.58ZM249.807 47.81C250.807 47.81 251.612 48.11 252.222 48.71C252.842 49.31 253.152 50.2 253.152 51.38V56H250.812V51.74C250.812 51.1 250.672 50.625 250.392 50.315C250.112 49.995 249.707 49.835 249.177 49.835C248.587 49.835 248.117 50.02 247.767 50.39C247.417 50.75 247.242 51.29 247.242 52.01V56H244.902V47.93H247.137V48.875C247.447 48.535 247.832 48.275 248.292 48.095C248.752 47.905 249.257 47.81 249.807 47.81ZM260.478 55.61C260.248 55.78 259.963 55.91 259.623 56C259.293 56.08 258.943 56.12 258.573 56.12C257.613 56.12 256.868 55.875 256.338 55.385C255.818 54.895 255.558 54.175 255.558 53.225V49.91H254.313V48.11H255.558V46.145H257.898V48.11H259.908V49.91H257.898V53.195C257.898 53.535 257.983 53.8 258.153 53.99C258.333 54.17 258.583 54.26 258.903 54.26C259.273 54.26 259.588 54.16 259.848 53.96L260.478 55.61ZM264.026 48.995C264.306 48.605 264.681 48.31 265.151 48.11C265.631 47.91 266.181 47.81 266.801 47.81V49.97C266.541 49.95 266.366 49.94 266.276 49.94C265.606 49.94 265.081 50.13 264.701 50.51C264.321 50.88 264.131 51.44 264.131 52.19V56H261.791V47.93H264.026V48.995ZM276.025 51.995C276.025 52.025 276.01 52.235 275.98 52.625H269.875C269.985 53.125 270.245 53.52 270.655 53.81C271.065 54.1 271.575 54.245 272.185 54.245C272.605 54.245 272.975 54.185 273.295 54.065C273.625 53.935 273.93 53.735 274.21 53.465L275.455 54.815C274.695 55.685 273.585 56.12 272.125 56.12C271.215 56.12 270.41 55.945 269.71 55.595C269.01 55.235 268.47 54.74 268.09 54.11C267.71 53.48 267.52 52.765 267.52 51.965C267.52 51.175 267.705 50.465 268.075 49.835C268.455 49.195 268.97 48.7 269.62 48.35C270.28 47.99 271.015 47.81 271.825 47.81C272.615 47.81 273.33 47.98 273.97 48.32C274.61 48.66 275.11 49.15 275.47 49.79C275.84 50.42 276.025 51.155 276.025 51.995ZM271.84 49.58C271.31 49.58 270.865 49.73 270.505 50.03C270.145 50.33 269.925 50.74 269.845 51.26H273.82C273.74 50.75 273.52 50.345 273.16 50.045C272.8 49.735 272.36 49.58 271.84 49.58ZM285.67 56.12C284.82 56.12 284.055 55.945 283.375 55.595C282.705 55.235 282.18 54.74 281.8 54.11C281.42 53.48 281.23 52.765 281.23 51.965C281.23 51.165 281.42 50.45 281.8 49.82C282.18 49.19 282.705 48.7 283.375 48.35C284.055 47.99 284.82 47.81 285.67 47.81C286.52 47.81 287.28 47.99 287.95 48.35C288.62 48.7 289.145 49.19 289.525 49.82C289.905 50.45 290.095 51.165 290.095 51.965C290.095 52.765 289.905 53.48 289.525 54.11C289.145 54.74 288.62 55.235 287.95 55.595C287.28 55.945 286.52 56.12 285.67 56.12ZM285.67 54.2C286.27 54.2 286.76 54 287.14 53.6C287.53 53.19 287.725 52.645 287.725 51.965C287.725 51.285 287.53 50.745 287.14 50.345C286.76 49.935 286.27 49.73 285.67 49.73C285.07 49.73 284.575 49.935 284.185 50.345C283.795 50.745 283.6 51.285 283.6 51.965C283.6 52.645 283.795 53.19 284.185 53.6C284.575 54 285.07 54.2 285.67 54.2ZM294.225 48.11H296.295V49.91H294.285V56H291.945V49.91H290.7V48.11H291.945V47.75C291.945 46.83 292.215 46.1 292.755 45.56C293.305 45.02 294.075 44.75 295.065 44.75C295.415 44.75 295.745 44.79 296.055 44.87C296.375 44.94 296.64 45.045 296.85 45.185L296.235 46.88C295.965 46.69 295.65 46.595 295.29 46.595C294.58 46.595 294.225 46.985 294.225 47.765V48.11ZM310.003 54.05V56H301.873V45.5H309.808V47.45H304.288V49.73H309.163V51.62H304.288V54.05H310.003ZM319.933 44.87V56H317.698V55.07C317.118 55.77 316.278 56.12 315.178 56.12C314.418 56.12 313.728 55.95 313.108 55.61C312.498 55.27 312.018 54.785 311.668 54.155C311.318 53.525 311.143 52.795 311.143 51.965C311.143 51.135 311.318 50.405 311.668 49.775C312.018 49.145 312.498 48.66 313.108 48.32C313.728 47.98 314.418 47.81 315.178 47.81C316.208 47.81 317.013 48.135 317.593 48.785V44.87H319.933ZM315.583 54.2C316.173 54.2 316.663 54 317.053 53.6C317.443 53.19 317.638 52.645 317.638 51.965C317.638 51.285 317.443 50.745 317.053 50.345C316.663 49.935 316.173 49.73 315.583 49.73C314.983 49.73 314.488 49.935 314.098 50.345C313.708 50.745 313.513 51.285 313.513 51.965C313.513 52.645 313.708 53.19 314.098 53.6C314.488 54 314.983 54.2 315.583 54.2ZM330.229 47.93V56H328.009V55.04C327.699 55.39 327.329 55.66 326.899 55.85C326.469 56.03 326.004 56.12 325.504 56.12C324.444 56.12 323.604 55.815 322.984 55.205C322.364 54.595 322.054 53.69 322.054 52.49V47.93H324.394V52.145C324.394 53.445 324.939 54.095 326.029 54.095C326.589 54.095 327.039 53.915 327.379 53.555C327.719 53.185 327.889 52.64 327.889 51.92V47.93H330.229ZM336.297 56.12C335.437 56.12 334.662 55.945 333.972 55.595C333.292 55.235 332.757 54.74 332.367 54.11C331.987 53.48 331.797 52.765 331.797 51.965C331.797 51.165 331.987 50.45 332.367 49.82C332.757 49.19 333.292 48.7 333.972 48.35C334.662 47.99 335.437 47.81 336.297 47.81C337.147 47.81 337.887 47.99 338.517 48.35C339.157 48.7 339.622 49.205 339.912 49.865L338.097 50.84C337.677 50.1 337.072 49.73 336.282 49.73C335.672 49.73 335.167 49.93 334.767 50.33C334.367 50.73 334.167 51.275 334.167 51.965C334.167 52.655 334.367 53.2 334.767 53.6C335.167 54 335.672 54.2 336.282 54.2C337.082 54.2 337.687 53.83 338.097 53.09L339.912 54.08C339.622 54.72 339.157 55.22 338.517 55.58C337.887 55.94 337.147 56.12 336.297 56.12ZM344.514 47.81C345.764 47.81 346.724 48.11 347.394 48.71C348.064 49.3 348.399 50.195 348.399 51.395V56H346.209V54.995C345.769 55.745 344.949 56.12 343.749 56.12C343.129 56.12 342.589 56.015 342.129 55.805C341.679 55.595 341.334 55.305 341.094 54.935C340.854 54.565 340.734 54.145 340.734 53.675C340.734 52.925 341.014 52.335 341.574 51.905C342.144 51.475 343.019 51.26 344.199 51.26H346.059C346.059 50.75 345.904 50.36 345.594 50.09C345.284 49.81 344.819 49.67 344.199 49.67C343.769 49.67 343.344 49.74 342.924 49.88C342.514 50.01 342.164 50.19 341.874 50.42L341.034 48.785C341.474 48.475 341.999 48.235 342.609 48.065C343.229 47.895 343.864 47.81 344.514 47.81ZM344.334 54.545C344.734 54.545 345.089 54.455 345.399 54.275C345.709 54.085 345.929 53.81 346.059 53.45V52.625H344.454C343.494 52.625 343.014 52.94 343.014 53.57C343.014 53.87 343.129 54.11 343.359 54.29C343.599 54.46 343.924 54.545 344.334 54.545ZM355.722 55.61C355.492 55.78 355.207 55.91 354.867 56C354.537 56.08 354.187 56.12 353.817 56.12C352.857 56.12 352.112 55.875 351.582 55.385C351.062 54.895 350.802 54.175 350.802 53.225V49.91H349.557V48.11H350.802V46.145H353.142V48.11H355.152V49.91H353.142V53.195C353.142 53.535 353.227 53.8 353.397 53.99C353.577 54.17 353.827 54.26 354.147 54.26C354.517 54.26 354.832 54.16 355.092 53.96L355.722 55.61ZM357.036 47.93H359.376V56H357.036V47.93ZM358.206 46.805C357.776 46.805 357.426 46.68 357.156 46.43C356.886 46.18 356.751 45.87 356.751 45.5C356.751 45.13 356.886 44.82 357.156 44.57C357.426 44.32 357.776 44.195 358.206 44.195C358.636 44.195 358.986 44.315 359.256 44.555C359.526 44.795 359.661 45.095 359.661 45.455C359.661 45.845 359.526 46.17 359.256 46.43C358.986 46.68 358.636 46.805 358.206 46.805ZM365.387 56.12C364.537 56.12 363.772 55.945 363.092 55.595C362.422 55.235 361.897 54.74 361.517 54.11C361.137 53.48 360.947 52.765 360.947 51.965C360.947 51.165 361.137 50.45 361.517 49.82C361.897 49.19 362.422 48.7 363.092 48.35C363.772 47.99 364.537 47.81 365.387 47.81C366.237 47.81 366.997 47.99 367.667 48.35C368.337 48.7 368.862 49.19 369.242 49.82C369.622 50.45 369.812 51.165 369.812 51.965C369.812 52.765 369.622 53.48 369.242 54.11C368.862 54.74 368.337 55.235 367.667 55.595C366.997 55.945 366.237 56.12 365.387 56.12ZM365.387 54.2C365.987 54.2 366.477 54 366.857 53.6C367.247 53.19 367.442 52.645 367.442 51.965C367.442 51.285 367.247 50.745 366.857 50.345C366.477 49.935 365.987 49.73 365.387 49.73C364.787 49.73 364.292 49.935 363.902 50.345C363.512 50.745 363.317 51.285 363.317 51.965C363.317 52.645 363.512 53.19 363.902 53.6C364.292 54 364.787 54.2 365.387 54.2ZM376.281 47.81C377.281 47.81 378.086 48.11 378.696 48.71C379.316 49.31 379.626 50.2 379.626 51.38V56H377.286V51.74C377.286 51.1 377.146 50.625 376.866 50.315C376.586 49.995 376.181 49.835 375.651 49.835C375.061 49.835 374.591 50.02 374.241 50.39C373.891 50.75 373.716 51.29 373.716 52.01V56H371.376V47.93H373.611V48.875C373.921 48.535 374.306 48.275 374.766 48.095C375.226 47.905 375.731 47.81 376.281 47.81Z" fill="#641924"/>
<path d="M0 49.7573V1H69V49.7573C58.8426 67.0583 34.5 82 34.5 82C34.5 82 8.05584 67.0583 0 49.7573Z" fill="#7C343F"/>
<path d="M4.25211 48.7953V5.71851H64.7479V48.7953C55.8424 64.0806 34.5 77.2816 34.5 77.2816C34.5 77.2816 11.3151 64.0806 4.25211 48.7953Z" stroke="#F26D5B" stroke-width="2"/>
<rect x="4.25211" y="36.3883" width="60.4958" height="0.786404" fill="#F26D5B"/>
<path d="M64.3613 36.9781H34.7899V76.4951C49.6723 66.2718 55.7605 61.2585 64.3613 48.9709V36.9781Z" fill="#FDFBEC"/>
<rect x="4.63866" y="6.11169" width="29.1849" height="30.2767" fill="#FDFBEC"/>
<rect x="33.8235" y="5.71851" width="0.966385" height="71.5631" fill="#F26D5B"/>
<g clip-path="url(#clip0)">
<path d="M24.669 16.5438H24.6368V14.5041H24.669C24.9192 14.5041 25.122 14.2978 25.122 14.0433C25.122 13.7888 24.9192 13.5825 24.669 13.5825H13.5093C12.4568 13.5825 11.6006 14.4535 11.6006 15.524V26.3822C11.6006 27.9969 12.8922 29.3107 14.4797 29.3107H24.669C24.9192 29.3107 25.122 29.1044 25.122 28.8499V17.0046C25.122 16.7501 24.9192 16.5438 24.669 16.5438ZM20.3022 22.4009H18.8143V25.8886C18.8143 26.1431 18.6115 26.3494 18.3613 26.3494C18.1112 26.3494 17.9083 26.1431 17.9083 25.8886V22.4009H16.4205C16.1704 22.4009 15.9675 22.1946 15.9675 21.9401C15.9675 21.6857 16.1704 21.4793 16.4205 21.4793H17.9083V19.9659C17.9083 19.7115 18.1112 19.5052 18.3613 19.5052C18.6115 19.5052 18.8143 19.7115 18.8143 19.9659V21.4794H20.3022C20.5524 21.4794 20.7552 21.6857 20.7552 21.9402C20.7552 22.1947 20.5524 22.4009 20.3022 22.4009ZM23.7309 16.5438H13.5093C12.9564 16.5438 12.5066 16.0863 12.5066 15.524C12.5066 14.9616 12.9564 14.5041 13.5093 14.5041H23.7309V16.5438Z" fill="#7C343F"/>
</g>
<g clip-path="url(#clip1)">
<path d="M47.2519 30.4309C47.5644 30.1364 47.8977 29.4025 48.2598 27.916C48.2613 27.9101 48.2624 27.9054 48.2629 27.8995C48.2812 27.7847 48.543 25.9469 47.9505 24.2048C47.8909 24.0299 48.1077 23.8965 48.2305 24.0331L48.4217 24.6172C48.5247 24.732 48.7122 24.6576 48.7122 24.5024V23.44C48.7122 23.3396 48.7974 23.2609 48.8956 23.271L49.8439 23.3656C49.9296 23.3741 49.9949 23.4475 49.9949 23.5346V24.2808C49.9949 24.4349 50.1804 24.5093 50.2838 24.3972L50.9108 23.7169C51.0022 23.6175 51.1663 23.6627 51.1956 23.7956L51.2771 24.1617C51.2917 24.2276 51.2671 24.2967 51.2133 24.3361C50.8408 24.6071 49.6344 25.8295 50.1741 28.6877C50.1757 28.6962 50.1773 28.7036 50.1804 28.7116C50.2164 28.82 50.3377 29.6826 51.0618 30.3804C51.1579 30.4729 51.1177 30.636 50.9897 30.6684C50.8047 30.7157 50.5743 30.779 50.4035 30.8406C49.9066 31.0192 49.2342 30.5924 49.0085 30.4335C48.9594 30.399 48.8977 30.3942 48.8439 30.4197C48.5889 30.5425 47.846 30.881 47.5565 30.7971C47.4578 30.7684 47.3752 30.7397 47.3068 30.7131C47.1892 30.6695 47.16 30.5175 47.2519 30.4309Z" fill="#FDFBEC"/>
<path d="M54.0331 19.1591C54.4814 18.6111 54.751 17.9069 54.751 17.1384C54.751 15.3921 53.3591 13.9757 51.6418 13.9757C50.5425 13.9757 49.5785 14.5577 49.0257 15.4335C48.6511 15.1221 48.1788 14.9276 47.6574 14.9276C46.5461 14.9276 45.6401 15.779 45.51 16.8738C45.4708 16.8716 45.4337 16.8621 45.3935 16.8621C44.1934 16.8621 43.22 17.8517 43.22 19.073C43.22 19.4078 43.2989 19.7219 43.43 20.0067C42.8715 20.5786 42.5261 21.3662 42.5261 22.2357C42.5261 23.9826 43.918 25.3984 45.6354 25.3984C46.8742 25.3984 47.9411 24.6592 48.4406 23.5925C48.7551 23.7376 49.101 23.8232 49.4688 23.8232C49.8429 23.8232 50.1945 23.7334 50.5132 23.5835C51.0111 24.6549 52.0801 25.3984 53.3226 25.3984C55.0399 25.3984 56.4318 23.9826 56.4318 22.2357C56.4318 20.738 55.4072 19.4864 54.0331 19.1591Z" fill="#FDFBEC"/>
</g>
<g clip-path="url(#clip2)">
<path d="M27.3099 47.6581L19.395 44.2298C19.289 44.1838 19.1733 44.1838 19.0672 44.2298L11.1523 47.6581C10.9555 47.7434 10.8238 47.9716 10.8235 48.2278C10.8233 48.4839 10.9545 48.7125 11.1512 48.7983L19.0661 52.2527C19.1195 52.276 19.1753 52.2877 19.2311 52.2877C19.2869 52.2877 19.3427 52.276 19.3961 52.2527L27.311 48.7983C27.5076 48.7125 27.6389 48.4839 27.6387 48.2278C27.6384 47.9716 27.5067 47.7434 27.3099 47.6581V47.6581Z" fill="#FDFBEC"/>
<path d="M26.4554 55.7308V50.4554L25.4702 50.8854V55.7308C25.1734 55.9404 24.9734 56.3334 24.9734 56.7839C24.9734 57.2344 25.1734 57.6274 25.4702 57.8371V60.8092C25.4702 61.1432 25.6908 61.414 25.9628 61.414C26.2349 61.414 26.4554 61.1432 26.4554 60.8092V57.8371C26.7522 57.6275 26.9522 57.2345 26.9522 56.784C26.9522 56.3334 26.7522 55.9404 26.4554 55.7308Z" fill="#FDFBEC"/>
<path d="M19.2311 53.4972C19.062 53.4972 18.8954 53.4619 18.7361 53.3924L14.2865 51.4504V54.1118C14.2865 54.7629 14.8398 55.3135 15.931 55.7483C16.8822 56.1273 18.0542 56.3361 19.2311 56.3361C20.408 56.3361 21.58 56.1273 22.5312 55.7483C23.6224 55.3135 24.1757 54.7629 24.1757 54.1118V51.4504L19.7262 53.3924C19.5667 53.4619 19.4002 53.4972 19.2311 53.4972V53.4972Z" fill="#FDFBEC"/>
</g>
<path d="M54.4942 45.7575C53.845 45.0975 53.0727 44.5731 52.2216 44.2145C51.3705 43.8558 50.4575 43.67 49.5349 43.6677C48.6123 43.6655 47.6983 43.8467 46.8455 44.2011C45.9927 44.5555 45.2178 45.0761 44.5654 45.7329C43.913 46.3897 43.396 47.1699 43.0439 48.0285C42.6919 48.8871 42.5119 49.8072 42.5142 50.7361C42.5164 51.665 42.701 52.5842 43.0572 53.4411C43.4134 54.2979 43.9343 55.0755 44.5898 55.7291C45.239 56.3891 46.0113 56.9135 46.8624 57.2721C47.7135 57.6307 48.6265 57.8165 49.5491 57.8188C50.4718 57.8211 51.3857 57.6398 52.2385 57.2854C53.0914 56.931 53.8662 56.4105 54.5186 55.7537C55.171 55.0968 55.688 54.3167 56.0401 53.4581C56.3921 52.5995 56.5721 51.6793 56.5699 50.7505C56.5676 49.8216 56.383 48.9023 56.0268 48.0455C55.6706 47.1886 55.1498 46.4111 54.4942 45.7575V45.7575ZM43.539 50.7433C43.5388 50.2084 43.6092 49.6758 43.7485 49.1596C43.978 49.657 44.3113 50.0867 44.5379 50.5969C44.8309 51.2529 45.6175 51.071 45.9649 51.6458C46.2732 52.156 45.944 52.8013 46.1747 53.3352C46.3423 53.7227 46.7375 53.8073 47.0101 54.0906C47.2887 54.3765 47.2827 54.768 47.3253 55.1407C47.3733 55.5786 47.4511 56.0127 47.5582 56.4398C47.5582 56.443 47.5582 56.4464 47.5607 56.4496C45.2211 55.6223 43.539 53.377 43.539 50.7433ZM49.542 56.787C49.2068 56.7869 48.8721 56.7587 48.5415 56.7027C48.5449 56.6174 48.5465 56.5377 48.5549 56.4823C48.6309 55.9818 48.8798 55.4923 49.2156 55.1178C49.5473 54.7482 50.0019 54.4983 50.2821 54.079C50.5566 53.6698 50.6388 53.1189 50.5256 52.6408C50.359 51.9344 49.4057 51.6986 48.8917 51.3156C48.5962 51.0952 48.3333 50.7546 47.9453 50.7269C47.7664 50.7143 47.6167 50.753 47.4394 50.7071C47.2768 50.6646 47.1492 50.5765 46.976 50.5994C46.6524 50.6422 46.4483 50.9904 46.1006 50.9432C45.7707 50.8988 45.4309 50.51 45.3559 50.1937C45.2596 49.787 45.5791 49.6551 45.9214 49.6189C46.0643 49.6038 46.2247 49.5874 46.362 49.6403C46.5427 49.7077 46.628 49.8858 46.7903 49.9759C47.0945 50.144 47.1561 49.8754 47.1095 49.6035C47.0398 49.1962 46.9585 49.0303 47.3193 48.7498C47.5695 48.5565 47.7833 48.4168 47.7433 48.0696C47.7195 47.8656 47.6085 47.7734 47.712 47.5703C47.7905 47.4158 48.0059 47.2763 48.1463 47.1841C48.5087 46.9461 49.6986 46.9638 49.2125 46.2977C49.0696 46.1022 48.806 45.7528 48.5559 45.705C48.2432 45.6455 48.1044 45.9968 47.8865 46.1516C47.6614 46.3118 47.223 46.4938 46.9976 46.2461C46.6943 45.9127 47.1986 45.8035 47.3103 45.5705C47.3619 45.4619 47.3103 45.3112 47.2233 45.1692C47.3361 45.1214 47.4507 45.077 47.5673 45.0361C47.6403 45.0904 47.7269 45.1231 47.8174 45.1305C48.0266 45.1443 48.2238 45.0304 48.4064 45.1739C48.609 45.3313 48.755 45.5303 49.0239 45.5794C49.2841 45.6269 49.5595 45.4742 49.6239 45.206C49.663 45.043 49.6239 44.8708 49.5864 44.7024C50.7557 44.7092 51.8973 45.0617 52.8693 45.7163C52.8068 45.6924 52.732 45.6952 52.6398 45.7383C52.45 45.8271 52.1811 46.0531 52.1589 46.2772C52.1336 46.5316 52.5063 46.5674 52.6833 46.5674C52.949 46.5674 53.2182 46.4478 53.1325 46.1387C53.0953 46.0046 53.0447 45.8652 52.9631 45.7808C53.1592 45.9179 53.3472 46.0665 53.5259 46.2259C53.5231 46.2287 53.5202 46.2313 53.5174 46.2344C53.3373 46.4233 53.1282 46.5728 53.005 46.8026C52.9181 46.9644 52.8202 47.0412 52.6442 47.0831C52.5473 47.106 52.4366 47.1145 52.3553 47.18C52.1289 47.3594 52.2577 47.7907 52.4722 47.92C52.7433 48.0834 53.1454 48.0066 53.3498 47.7734C53.5096 47.5908 53.6037 47.2738 53.891 47.2741C54.0175 47.2739 54.1391 47.3237 54.2293 47.4129C54.3482 47.537 54.3247 47.6528 54.35 47.8077C54.3947 48.0828 54.6358 47.9336 54.7824 47.7948C54.8893 47.9863 54.9858 48.1835 55.0713 48.3856C54.91 48.6195 54.7818 48.8745 54.3938 48.6019C54.1615 48.4385 54.0186 48.2015 53.7269 48.1278C53.4721 48.0648 53.211 48.1303 52.9593 48.1741C52.6733 48.2241 52.334 48.2462 52.117 48.4643C51.9072 48.6746 51.7963 48.956 51.573 49.1672C51.1412 49.5764 50.959 50.0231 51.2385 50.6016C51.5074 51.1578 52.0698 51.4597 52.6767 51.4201C53.2729 51.3801 53.8923 51.0319 53.8751 51.9042C53.8688 52.213 53.9329 52.4267 54.0271 52.7135C54.1143 52.9779 54.1083 53.2341 54.1284 53.507C54.1474 53.8266 54.197 54.1436 54.2766 54.4536C53.7161 55.18 52.9982 55.7679 52.1777 56.1723C51.3571 56.5767 50.4556 56.787 49.542 56.787V56.787Z" fill="#7C343F"/>
<defs>
<clipPath id="clip0">
<rect width="15.4622" height="15.7282" fill="white" transform="translate(10.6302 13.5825)"/>
</clipPath>
<clipPath id="clip1">
<rect width="16.6218" height="16.9078" fill="white" transform="translate(41.1681 13.9757)"/>
</clipPath>
<clipPath id="clip2">
<rect width="16.8151" height="20.6432" fill="white" transform="translate(10.8235 42.483)"/>
</clipPath>
</defs>
</svg>
